<mxfile host="app.diagrams.net" modified="2021-12-07T07:41:08.386Z" agent="5.0 (Windows NT 10.0; Win64; x64) AppleWebKit/537.36 (KHTML, like Gecko) Chrome/96.0.4664.45 Safari/537.36" etag="19uHHMYjaKYXIzKN1Hhs" version="15.9.1" type="github" pages="2">
  <diagram id="D56PqHCYbj21qSwCF37M" name="Page-1">
    <mxGraphModel dx="1422" dy="761" grid="0" gridSize="10" guides="1" tooltips="1" connect="1" arrows="1" fold="1" page="0" pageScale="1" pageWidth="1169" pageHeight="827" math="0" shadow="0">
      <root>
        <mxCell id="0" />
        <mxCell id="1" parent="0" />
        <mxCell id="LLPnSrTfeChFWCA2LCWD-5" style="edgeStyle=orthogonalEdgeStyle;rounded=0;orthogonalLoop=1;jettySize=auto;html=1;exitX=0.5;exitY=1;exitDx=0;exitDy=0;" edge="1" parent="1" source="LLPnSrTfeChFWCA2LCWD-1" target="LLPnSrTfeChFWCA2LCWD-4">
          <mxGeometry relative="1" as="geometry" />
        </mxCell>
        <mxCell id="LLPnSrTfeChFWCA2LCWD-8" style="edgeStyle=orthogonalEdgeStyle;rounded=0;orthogonalLoop=1;jettySize=auto;html=1;exitX=1;exitY=0.5;exitDx=0;exitDy=0;" edge="1" parent="1" source="LLPnSrTfeChFWCA2LCWD-1" target="LLPnSrTfeChFWCA2LCWD-7">
          <mxGeometry relative="1" as="geometry" />
        </mxCell>
        <mxCell id="LLPnSrTfeChFWCA2LCWD-1" value="wiki词条、百度词条&lt;br&gt;关联游戏内名词" style="rounded=1;whiteSpace=wrap;html=1;" vertex="1" parent="1">
          <mxGeometry x="150" y="245" width="120" height="60" as="geometry" />
        </mxCell>
        <mxCell id="LLPnSrTfeChFWCA2LCWD-3" style="edgeStyle=orthogonalEdgeStyle;rounded=0;orthogonalLoop=1;jettySize=auto;html=1;exitX=0.5;exitY=1;exitDx=0;exitDy=0;entryX=0.5;entryY=0;entryDx=0;entryDy=0;" edge="1" parent="1" source="LLPnSrTfeChFWCA2LCWD-2" target="LLPnSrTfeChFWCA2LCWD-1">
          <mxGeometry relative="1" as="geometry" />
        </mxCell>
        <mxCell id="LLPnSrTfeChFWCA2LCWD-2" value="服务器收集游戏信息" style="rounded=1;whiteSpace=wrap;html=1;" vertex="1" parent="1">
          <mxGeometry x="148" y="147" width="120" height="60" as="geometry" />
        </mxCell>
        <mxCell id="LLPnSrTfeChFWCA2LCWD-12" style="edgeStyle=orthogonalEdgeStyle;rounded=0;orthogonalLoop=1;jettySize=auto;html=1;exitX=0.5;exitY=1;exitDx=0;exitDy=0;" edge="1" parent="1" source="LLPnSrTfeChFWCA2LCWD-4" target="LLPnSrTfeChFWCA2LCWD-11">
          <mxGeometry relative="1" as="geometry" />
        </mxCell>
        <mxCell id="LLPnSrTfeChFWCA2LCWD-4" value="服务器对词条名词进行筛选、整理和记录" style="rounded=1;whiteSpace=wrap;html=1;" vertex="1" parent="1">
          <mxGeometry x="150" y="349" width="120" height="60" as="geometry" />
        </mxCell>
        <mxCell id="LLPnSrTfeChFWCA2LCWD-10" style="edgeStyle=orthogonalEdgeStyle;rounded=0;orthogonalLoop=1;jettySize=auto;html=1;exitX=0.5;exitY=1;exitDx=0;exitDy=0;" edge="1" parent="1" source="LLPnSrTfeChFWCA2LCWD-7" target="LLPnSrTfeChFWCA2LCWD-9">
          <mxGeometry relative="1" as="geometry" />
        </mxCell>
        <mxCell id="LLPnSrTfeChFWCA2LCWD-30" style="edgeStyle=orthogonalEdgeStyle;rounded=0;orthogonalLoop=1;jettySize=auto;html=1;exitX=1;exitY=0.5;exitDx=0;exitDy=0;entryX=0;entryY=0.5;entryDx=0;entryDy=0;" edge="1" parent="1" source="LLPnSrTfeChFWCA2LCWD-7" target="LLPnSrTfeChFWCA2LCWD-29">
          <mxGeometry relative="1" as="geometry" />
        </mxCell>
        <mxCell id="LLPnSrTfeChFWCA2LCWD-7" value="通过人物名字搜索人物图片&lt;br&gt;通过技能名字搜索技能图片" style="rounded=1;whiteSpace=wrap;html=1;" vertex="1" parent="1">
          <mxGeometry x="339" y="245" width="120" height="60" as="geometry" />
        </mxCell>
        <mxCell id="LLPnSrTfeChFWCA2LCWD-13" style="edgeStyle=orthogonalEdgeStyle;rounded=0;orthogonalLoop=1;jettySize=auto;html=1;exitX=0.5;exitY=1;exitDx=0;exitDy=0;" edge="1" parent="1" source="LLPnSrTfeChFWCA2LCWD-9" target="LLPnSrTfeChFWCA2LCWD-11">
          <mxGeometry relative="1" as="geometry" />
        </mxCell>
        <mxCell id="LLPnSrTfeChFWCA2LCWD-9" value="服务器图片进行人物、技能识别定位训练" style="rounded=1;whiteSpace=wrap;html=1;" vertex="1" parent="1">
          <mxGeometry x="339" y="349" width="120" height="60" as="geometry" />
        </mxCell>
        <mxCell id="LLPnSrTfeChFWCA2LCWD-22" style="edgeStyle=orthogonalEdgeStyle;rounded=0;orthogonalLoop=1;jettySize=auto;html=1;exitX=0.5;exitY=1;exitDx=0;exitDy=0;" edge="1" parent="1" source="LLPnSrTfeChFWCA2LCWD-11" target="LLPnSrTfeChFWCA2LCWD-19">
          <mxGeometry relative="1" as="geometry" />
        </mxCell>
        <mxCell id="LLPnSrTfeChFWCA2LCWD-11" value="主播端客户端" style="rounded=1;whiteSpace=wrap;html=1;" vertex="1" parent="1">
          <mxGeometry x="244" y="493" width="120" height="60" as="geometry" />
        </mxCell>
        <mxCell id="LLPnSrTfeChFWCA2LCWD-14" value="识别模型" style="text;html=1;strokeColor=none;fillColor=none;align=center;verticalAlign=middle;whiteSpace=wrap;rounded=0;" vertex="1" parent="1">
          <mxGeometry x="333" y="420" width="60" height="30" as="geometry" />
        </mxCell>
        <mxCell id="LLPnSrTfeChFWCA2LCWD-15" value="人物和技能列表" style="text;html=1;strokeColor=none;fillColor=none;align=center;verticalAlign=middle;whiteSpace=wrap;rounded=0;" vertex="1" parent="1">
          <mxGeometry x="157" y="456" width="118" height="30" as="geometry" />
        </mxCell>
        <mxCell id="LLPnSrTfeChFWCA2LCWD-17" style="edgeStyle=orthogonalEdgeStyle;rounded=0;orthogonalLoop=1;jettySize=auto;html=1;exitX=0.5;exitY=1;exitDx=0;exitDy=0;entryX=0.5;entryY=0;entryDx=0;entryDy=0;" edge="1" parent="1" source="LLPnSrTfeChFWCA2LCWD-16" target="LLPnSrTfeChFWCA2LCWD-11">
          <mxGeometry relative="1" as="geometry">
            <Array as="points">
              <mxPoint x="322" y="125" />
              <mxPoint x="762" y="125" />
              <mxPoint x="762" y="452" />
              <mxPoint x="304" y="452" />
            </Array>
          </mxGeometry>
        </mxCell>
        <mxCell id="LLPnSrTfeChFWCA2LCWD-27" style="edgeStyle=orthogonalEdgeStyle;rounded=0;orthogonalLoop=1;jettySize=auto;html=1;exitX=0.5;exitY=1;exitDx=0;exitDy=0;" edge="1" parent="1" source="LLPnSrTfeChFWCA2LCWD-16" target="LLPnSrTfeChFWCA2LCWD-2">
          <mxGeometry relative="1" as="geometry" />
        </mxCell>
        <mxCell id="LLPnSrTfeChFWCA2LCWD-16" value="服务器" style="rounded=1;whiteSpace=wrap;html=1;" vertex="1" parent="1">
          <mxGeometry x="263" y="43" width="120" height="60" as="geometry" />
        </mxCell>
        <mxCell id="LLPnSrTfeChFWCA2LCWD-18" value="语言转文字翻译模型" style="text;html=1;strokeColor=none;fillColor=none;align=center;verticalAlign=middle;whiteSpace=wrap;rounded=0;" vertex="1" parent="1">
          <mxGeometry x="549" y="93" width="146" height="30" as="geometry" />
        </mxCell>
        <mxCell id="LLPnSrTfeChFWCA2LCWD-23" style="edgeStyle=orthogonalEdgeStyle;rounded=0;orthogonalLoop=1;jettySize=auto;html=1;exitX=0.5;exitY=1;exitDx=0;exitDy=0;" edge="1" parent="1" source="LLPnSrTfeChFWCA2LCWD-19" target="LLPnSrTfeChFWCA2LCWD-20">
          <mxGeometry relative="1" as="geometry" />
        </mxCell>
        <mxCell id="LLPnSrTfeChFWCA2LCWD-19" value="客户端采集语音，通过语音转译为文字" style="rounded=1;whiteSpace=wrap;html=1;fontStyle=0" vertex="1" parent="1">
          <mxGeometry x="115" y="605" width="120" height="60" as="geometry" />
        </mxCell>
        <mxCell id="LLPnSrTfeChFWCA2LCWD-24" style="edgeStyle=orthogonalEdgeStyle;rounded=0;orthogonalLoop=1;jettySize=auto;html=1;exitX=1;exitY=0.5;exitDx=0;exitDy=0;entryX=0;entryY=0.5;entryDx=0;entryDy=0;" edge="1" parent="1" source="LLPnSrTfeChFWCA2LCWD-20" target="LLPnSrTfeChFWCA2LCWD-21">
          <mxGeometry relative="1" as="geometry" />
        </mxCell>
        <mxCell id="LLPnSrTfeChFWCA2LCWD-20" value="检测翻译文字进行人物和技能匹配" style="rounded=1;whiteSpace=wrap;html=1;" vertex="1" parent="1">
          <mxGeometry x="115" y="707" width="120" height="60" as="geometry" />
        </mxCell>
        <mxCell id="LLPnSrTfeChFWCA2LCWD-37" style="edgeStyle=orthogonalEdgeStyle;rounded=0;orthogonalLoop=1;jettySize=auto;html=1;exitX=1;exitY=0.5;exitDx=0;exitDy=0;entryX=0;entryY=0.5;entryDx=0;entryDy=0;" edge="1" parent="1" source="LLPnSrTfeChFWCA2LCWD-21" target="LLPnSrTfeChFWCA2LCWD-25">
          <mxGeometry relative="1" as="geometry" />
        </mxCell>
        <mxCell id="LLPnSrTfeChFWCA2LCWD-21" value="对视频流进行识别模型检测，定位到人物和技能位置，用不同颜色来标注" style="rounded=1;whiteSpace=wrap;html=1;" vertex="1" parent="1">
          <mxGeometry x="333" y="707" width="120" height="60" as="geometry" />
        </mxCell>
        <mxCell id="LLPnSrTfeChFWCA2LCWD-40" style="edgeStyle=orthogonalEdgeStyle;rounded=0;orthogonalLoop=1;jettySize=auto;html=1;exitX=1;exitY=0.5;exitDx=0;exitDy=0;" edge="1" parent="1" source="LLPnSrTfeChFWCA2LCWD-25" target="LLPnSrTfeChFWCA2LCWD-39">
          <mxGeometry relative="1" as="geometry" />
        </mxCell>
        <mxCell id="LLPnSrTfeChFWCA2LCWD-25" value="使用分割模型对人物和技能图进行分割，得到真实的分割贴图" style="rounded=1;whiteSpace=wrap;html=1;" vertex="1" parent="1">
          <mxGeometry x="573" y="707" width="120" height="60" as="geometry" />
        </mxCell>
        <mxCell id="LLPnSrTfeChFWCA2LCWD-32" style="edgeStyle=orthogonalEdgeStyle;rounded=0;orthogonalLoop=1;jettySize=auto;html=1;exitX=0.5;exitY=1;exitDx=0;exitDy=0;" edge="1" parent="1" source="LLPnSrTfeChFWCA2LCWD-29" target="LLPnSrTfeChFWCA2LCWD-31">
          <mxGeometry relative="1" as="geometry" />
        </mxCell>
        <mxCell id="LLPnSrTfeChFWCA2LCWD-29" value="手工对人物和技能按钮贴图进行标注" style="rounded=1;whiteSpace=wrap;html=1;" vertex="1" parent="1">
          <mxGeometry x="562" y="245" width="120" height="60" as="geometry" />
        </mxCell>
        <mxCell id="LLPnSrTfeChFWCA2LCWD-33" style="edgeStyle=orthogonalEdgeStyle;rounded=0;orthogonalLoop=1;jettySize=auto;html=1;exitX=0.5;exitY=1;exitDx=0;exitDy=0;" edge="1" parent="1" source="LLPnSrTfeChFWCA2LCWD-31" target="LLPnSrTfeChFWCA2LCWD-11">
          <mxGeometry relative="1" as="geometry" />
        </mxCell>
        <mxCell id="LLPnSrTfeChFWCA2LCWD-31" value="服务器人物，技能题图进行分割训练" style="rounded=1;whiteSpace=wrap;html=1;" vertex="1" parent="1">
          <mxGeometry x="562" y="349" width="120" height="60" as="geometry" />
        </mxCell>
        <mxCell id="LLPnSrTfeChFWCA2LCWD-34" value="" style="endArrow=none;dashed=1;html=1;dashPattern=1 3;strokeWidth=2;rounded=0;entryX=0;entryY=1;entryDx=0;entryDy=0;exitX=0.008;exitY=0.117;exitDx=0;exitDy=0;exitPerimeter=0;" edge="1" parent="1" source="LLPnSrTfeChFWCA2LCWD-20" target="LLPnSrTfeChFWCA2LCWD-4">
          <mxGeometry width="50" height="50" relative="1" as="geometry">
            <mxPoint x="49" y="438" as="sourcePoint" />
            <mxPoint x="99" y="388" as="targetPoint" />
          </mxGeometry>
        </mxCell>
        <mxCell id="LLPnSrTfeChFWCA2LCWD-35" value="" style="endArrow=none;dashed=1;html=1;dashPattern=1 3;strokeWidth=2;rounded=0;entryX=0.675;entryY=1;entryDx=0;entryDy=0;entryPerimeter=0;" edge="1" parent="1" target="LLPnSrTfeChFWCA2LCWD-9">
          <mxGeometry width="50" height="50" relative="1" as="geometry">
            <mxPoint x="420" y="704" as="sourcePoint" />
            <mxPoint x="456.04" y="417" as="targetPoint" />
          </mxGeometry>
        </mxCell>
        <mxCell id="LLPnSrTfeChFWCA2LCWD-36" value="" style="endArrow=none;dashed=1;html=1;dashPattern=1 3;strokeWidth=2;rounded=0;entryX=0.675;entryY=1;entryDx=0;entryDy=0;entryPerimeter=0;" edge="1" parent="1">
          <mxGeometry width="50" height="50" relative="1" as="geometry">
            <mxPoint x="655" y="702" as="sourcePoint" />
            <mxPoint x="655" y="407" as="targetPoint" />
          </mxGeometry>
        </mxCell>
        <mxCell id="LLPnSrTfeChFWCA2LCWD-38" value="分割模型" style="text;html=1;strokeColor=none;fillColor=none;align=center;verticalAlign=middle;whiteSpace=wrap;rounded=0;" vertex="1" parent="1">
          <mxGeometry x="541" y="423" width="60" height="30" as="geometry" />
        </mxCell>
        <mxCell id="LLPnSrTfeChFWCA2LCWD-42" style="edgeStyle=orthogonalEdgeStyle;rounded=0;orthogonalLoop=1;jettySize=auto;html=1;exitX=1;exitY=0.5;exitDx=0;exitDy=0;" edge="1" parent="1" source="LLPnSrTfeChFWCA2LCWD-39" target="LLPnSrTfeChFWCA2LCWD-41">
          <mxGeometry relative="1" as="geometry" />
        </mxCell>
        <mxCell id="LLPnSrTfeChFWCA2LCWD-39" value="将贴图加入边框颜色，将贴图重新贴会原视频上的位置" style="rounded=1;whiteSpace=wrap;html=1;" vertex="1" parent="1">
          <mxGeometry x="798" y="707" width="120" height="60" as="geometry" />
        </mxCell>
        <mxCell id="LLPnSrTfeChFWCA2LCWD-41" value="使用跟踪算法持续对人物位置变化进行跟踪识别和分割处理" style="rounded=1;whiteSpace=wrap;html=1;" vertex="1" parent="1">
          <mxGeometry x="1016" y="707" width="120" height="60" as="geometry" />
        </mxCell>
      </root>
    </mxGraphModel>
  </diagram>
  <diagram id="-MuUpNt65kEivM4eD5cy" name="Page-2">
    <mxGraphModel dx="2222" dy="761" grid="0" gridSize="10" guides="1" tooltips="1" connect="1" arrows="1" fold="1" page="0" pageScale="1" pageWidth="1169" pageHeight="827" math="0" shadow="0">
      <root>
        <mxCell id="AVcUfgeAxnviZxiKyeQJ-0" />
        <mxCell id="AVcUfgeAxnviZxiKyeQJ-1" parent="AVcUfgeAxnviZxiKyeQJ-0" />
        <mxCell id="AVcUfgeAxnviZxiKyeQJ-2" value="" style="shape=image;verticalLabelPosition=bottom;labelBackgroundColor=#ffffff;verticalAlign=top;aspect=fixed;imageAspect=0;image=data:image/png,iVBORw0KGgoAAAANSUhEUgAABCUAAAL9CAYAAAActdzqAAAgAElEQVR4nOzdT2gbeZ7//1cNPf0nEHcuw8jBIQgCgUC+Az4Ey9CwK5JTcokKGyzn0gTczGQOxqTTs2M5u9gShCYdOjCeQyD0JSqDg5zDr3NK8G7ToDJ9MPQawgQCIti01DDs2Al0h2Zn63eoklQqlWwrsVOS/HyASCyXqj4qfT6W6q335/M2HMdxBAAAAAAA8Jb9KuoGAAAAAACAg4mgBAAAAAAAiARBCQAAAAAAEAmCEgAAAAAAIBIEJQAAAAAAQCQISgAAAAAAgEgQlAAAAAAAAJEgKAEAAAAAACJBUAIAAAAAAESCoAQAAAAAAIgEQQkAAAAAABAJghIAAAAAACASBCUAAAAAAEAkCEoAAAAAAIBIEJQAAAAAAACRICgBAAAAAAAiQVACAAAAAABE4p2oGwBs5+nTp7p3754eP36sJ0+e6MWLF1E3CS309fXp1KlTOnv2rC5duqSTJ09G3SQAAAAAHY5MCXSsyclJnTlzRq9evdKNGzf0/PlzOY7DrUNvz58/140bN/Tq1SudOXNGk5OTUXchAAAAAB3OcBzHiboRgN8PP/wg0zR1+vRpff755zpy5EjUTUKbNjc3de3aNa2tralQKOjo0aNRNwkAAABAByIogY6TSCR0/vx5ZTKZqJuCN5TNZvXw4UPZth11UwAAAAB0IIIS6CiTk5P66aefdOfOnaibgj0yMTGhQ4cO6csvv4y6KQAAAAA6DEEJdIynT5/qzJkzev78OVM2esjm5qaOHz+u7777jsUvAQAAADRgoUt0jHv37mliYoKARI85cuSIJiYmdO/evaibAgAAAKDDEJRAx3j8+LEuXLgQdTOwDy5cuKDHjx9H3QwAAAAAHYbpG+gYH374IVM3elR1CsfW1lbUTQEAAADQQQhKoGMYhiG6Y+/i9QUAAAAQxPQNAAAAAAAQCYISAAAAAAAgEgQlAAAAAABAJAhKAAAAAACASBCUAAAAAAAAkSAoAQAAAAAAIkFQAgAAAAAARIKgBAAAAAAAiARBCQAAAAAAEAmCEgAAAAAAIBIEJQAAAAAAQCQISgAAAAAAgEgQlAAAAAAAAJEgKAEAAAAAACJBUAJom62cYcjwbrkVyZ6r/1y/5WQ3Pc6UtbHT/iuyRhv3lVuRKgtm4/5HLVX27TkCAAAAwP4jKAG8jpG8yo6jspXy7kgpv+7Icaq3svIjjQ+x54aV0ZLGj4UFMILBiqyK3r7qx5BSVtnbf1HZ/X6OAAAAALDPCEoA+6Kk0v36T/acoWFllfUFG6q34qyk2atKD/gfn9GwF7DoTy/V7l1K93tBjGFl3tZTAQAAAIB9QlACeB33x9UfCBhI/ikWw1q1Livh3XfzRFnOzLSmnaSWvekY2rBkGoaWzzlyZhK+vcSUXmwMXFwumbqieS9DwsvKWEwr9jafMwAAAADssXeibgDQlUbyKi+mpQVTd313x8YKcsYaN42NFVSo/rBR0qqkpYRRy3QYDOy6smA2BTtcSzLS3n+PGRr3tYPgBAAAAIBuRKYEsCfC1oowZW0EFq2ckuYD0zeSj3y/n7PdwEbt9+7aESmr7E3zKDY8lmwJAAAAAN2MoATwOpqmb6SUt7KBhSgHFR8ITMVYTCu2kpO5UK+bkZjx/X4mEajksayk46gwFnO3O7dMBQ4AAAAAPYOgBPA6mqpvSPooqcH0XdmSKgs3a2tKNJX4TGR8C1Y2V99IzPgrd7gLXuZWJK3kZCQyjW0gUwIAAABAFyMoAbTLWxeiWULTtjRsGOp/YGp+rBou8GdLlJUfCSsfOqh4Q/UNSoICAAAA6H0EJYA2Vb4tSBeToRkKlZIXrrhf0PJG4JcblkyjX6WpQqD8Z2P5UBclQQEAAAD0PoISQJtKzyTzI8kaNdSflpfh4C502f/sqpfJcFWlY96aDyu5hkUup4dUKwcaLB9aR6YEAAAAgN5nOI7jRN0IQJIMwxDdsXfx+gIAAAAIIlMCAAAAAABEgqAEAAAAAACIBEEJAAAAAAAQCYISAAAAAAAgEgQlAAAAAABAJAhKAAAAAACASBCUAAAAAAAAkSAoAQAAAAAAIkFQAgAAAAAARIKgBAAAAAAAiARBCQAAAAAAEAmCEgAAAAAAIBIEJQAAAAAAQCQISgAAAAAAgEgQlAAAAAAAAJEgKAEAAAAAACJBUAIdo6+vT5ubm1E3A/tgc3NTfX19UTcDAAAAQIchKIGOcerUKX3//fdRNwP74Pvvv9epU6eibgYAAACADkNQAh3j7Nmz+vrrr6NuBvbB119/rbNnz0bdDAAAAAAdxnAcx4m6EYAkPX36VGfOnNHz58915MiRqJuDPbK5uanjx4/ru+++08mTJ6NuDgAAAIAOQlACHWVyclI//fST7ty5E3VTsEcmJiZ06NAhffnll1E3BQAAAECHISiBjpNIJHT+/HllMpmom4I3lM1m9fDhQ9m2HXVTAAAAAHQg1pRAxykUCnr48KEmJiaoxtGlNjc3NTExoYcPH6pQKETdHACvpSJr1JS1EXU7AABALyMogY5z9OhR2batQ4cO6fjx4/r000/1zTffEKDocJubm/rmm2/06aef6vjx4zp06JBs29bRo0ejbhrwdmxYyi1UJEmVBVOGYbS85VbCdlCRNWrI9PbRij0XEijYsGSOWtr+ke7+w48dJqb01KDGp1rsdyXX9LzMBUu56v9Hzcbnu2HJnLPr7W15fnKq5VY1PS9buerPwd+FtMcwDBmjliorORlztncOfPsHAACRIyiBjvXll1/qu+++0/vvv68//elPOn78+LYf8rlFezt+/Lj+9Kc/6f3339d3333HGhI4eAbSSj7rV25Fio0V5DiOnPW8UrNF9/++2/SQZM8Fx1G/xu9LS+n+5jFWvZiXreU1U8mBwLE3StLFpGLbNjCm9GJRSrTIfgi7qE9kpPvj6g/cn1uRNBBX1irLWc/X/tWzuKYdR46dlS7Oy3EcFWfr52f+xE036DKQVmE9r9RIXmXfeSlbKWk2qURT49yAimEMK1Ntz7FxLVX/P2qpMjQtxykqq6yK1TbMFuUspnc4LwAAIEoEJdDRTp48qbm5Odm2ra2traYP9t16q4q6HXt529rakm3bmpubo8oGDqzETFnxR5Yq1UyAY+Nauj7cfEEvKTHTxhibSXhBDN9FuWEot+AdJ5FpCGbkVqoX8cHbsDJa0vixwP1exkHKKu/YlrKVcp/AQFrJZ3e9rIOSrK+k+RnVMxm0rNxcY05CbGxe5gPvMQNpFaZK6ve2t+cM9T+7KmcmoVoQohZ46FdpynGDDtVAhj+oQeABAICuxUKXQAQMw5AkMfyA3mbPmSp9XFDay2yoLJi6Gy9oeqj+c396adt9pKyyCmOx0Md7R1HOWFbSmQ7JMGj1GEkrOZmly7V919tsaPj67trS3Pas8pb7v4KSMh8sq3Q6I51zmo/v7kXWqJsh4t+3v+39D0yVF9OKreTczI0mWRWdyyp5+wmTnc0qo6Scmbis0buKL4afKwAA8PaRKQEAwBurZyaYC5XamhLD1xuzEvrTS8ok6pkJtWke29zqF+oVLT8zdXmgujaDb0qDMhoOyXyQpNhHplYfNa+iYD9alflRc35BWAaHmx2R1VVf0MBte1HZkZRSqmZZTCs9Nq10XJLiSi9OK9l0fmxfFscV6ZZ7jHldaZquUnq25E4fmdtpFYiY0ouB7Inq9A3H0fS53b+SAADg7SIoAQDAG3MviqtTG3YMNnjTDXZaELMa5JAkrdxV4YR/3Qj3mMXZlPLr4fuXJA0kZa7dbFxHYsPSzbC1KUK4GRGDKgYzMTYsmcaykrdMDVplN6jQMnjgBQ3srNxgRbWtBaUH3Cofyx/5ztlMwmtjSqmRvIonbir3KGx6SVn5kfpR7K/Gw9fWGJr2poUAAIBOQ1ACAIB90DLg4M9iaCNTolJaddeN8K1TkVuxtXy9eY2IxgobMaVvmSrUqmjYyh0ryLzlX4eh1RoUhjdFI5iJ8Vf9dWpcS8po+Ni4Mul+d7vry7I3LJneNIvKgtliKoj/eP0av9/4HHIrboBh8KIpSYqPFTR9LmwRUN+UjZWchlVsmgKi6nOubq+44q/5mgIAgL1HUAIAgH2StQNBhvW8Uv4NWpWxDAkwhFX0mB5KuNUuqjc7K43kdTm4fkN1UUnDkGHcVHy9vs6Ft3df9kJgfyHVQ5zFP+gPt7x2+KpvpGal5WMlXbWzWkr3q//Z1Xr1DbU6Xln5kcZsj+khSSfyuvyR7yFD07XfN2aHeBkcwWyIoWmVT9z0zp/vPLEoJgAAHYWgBAAAe8yey2l5l9tuV/GifkHvyyzwZUpU12cwFypugONW3F0UctsjLqkUVhL0dVwfluFlShjHxrWkpKa9IEHKKreYMlGSNWe6VUNaZEoYo5biY/7nUc10MELX6jB8FTyCWR6ZROtMFQAAED2CEgAA7KGldL9unrispNR8QXxsXMF6Fc1TEvwX39WtfJkFvkyJwlhcyVtFDab7ZSQySoWsp1C7UH+UrAU7ko8C61W8rmCmxK7Oz03p44IKTutMieZshnqmQ3FWSllF5We9BS192wcX6SxbqeZsFTIlAADoKAQlAADYI6VnS8ra9XUgdpy+od1mSrQSU2zAu2Bfz0vpfm+6Qj2zYvmcb/FIT/XivVbxIpA9UAtkJDLKnttmgcimTImSe9xERoPP7nqBlayS3nQS+9Gq8k1TR3bBN81l+ZyjwlhC6Y+lK7VqHV+HrokRmilBtgQAAB3FcBzHiboRwEFjGIYkieEHAAAA4CAjUwIAAAAAAESCoAQAAAAAAIgEQQkAAAAAABAJghIAAAAAACASBCUAAAAAAEAkCEoAAAAAAIBIEJQAAAAAAACRICgBAAAAAAAiQVACAAAAAABEgqAEAAAAAACIBEEJAAAAAAAQiXeibgDa86//+q/6r//6r6ibgT1iGEbUTQAAYM/8y7/8i/7zP/8z6mYAALqI4TiOE3UjsHuGYYiXDAAAdCI+pwAA2sX0DQAAAAAAEAmCEgAAAAAAIBIEJQAAAAAAQCQISgAAAAAAgEgQlAAAAAAAAJEgKAEAAAAAACJBUAIAAAAAAESCoAQAAAAAAIgEQQkAAAAAABAJghIAAAAAACASBCUAAAAAAEAkCEoAAAAAAIBIEJTocF988YXef/993b59u+H+27dv67333tMXX3wRUcsAAAAAAHgzhuM4TtSNQGsvX77Ub37zG/3qV7/Su+++q62tLX344Yf65Zdf9M9//lN///vfdfjw4aibCQAAIMMwxEdLAEA7yJTocIcPH9bvf/97vfPOO9ra2pIkbW1t6eeff9af//xnAhIAAAAAgK5FpkQXePnypX7729/q559/rt33wQcf6McffyQoAQAAOgaZEgCAdpEp0QUOHz6sTz75pCEA8dlnnxGQAAAAAAB0NTIluoQ/W4IsCQAA0InIlAAAtItMiS5RzZb49a9/TZYEAAAAAKAnkCnRRV6+fKk//vGP+stf/kJQAgAAdBwyJQAA7erJoMTTp0917949PX78WE+ePNGLFy+ibhJa6Ovr06lTp3T27FldunRJJ0+ejLpJAADgNRGUAAC0q+emb0xOTurMmTN69eqVbty4oefPn8txHG4denv+/Llu3LihV69e6cyZM5qcnIy6CwEAAAAA3pKeyZT44YcfZJqmTp8+rc8//1xHjhyJuklo0+bmpq5du6a1tTUVCgUdPXo06iYBAIA2kCkBAGhXzwQlEomEzp8/r0wmE3VT8Iay2awePnwo27ajbgoAAGgDQQkAQLt6IigxOTmpn376SXfu3Im6KdgjExMTOnTokL788suomwIAAHaJoAQAoF1dH5R4+vSpzpw5o+fPnzNlo4dsbm7q+PHj+u6771j8EgCALkFQAgDQrq5f6PLevXuamJggINFjjhw5oomJCd27dy/qpgAAAAAA9knXByUeP36sCxcuRN0M7IMLFy7o8ePHUTcDAAAAALBPun76xocffsjUjR5VncKxtbUVdVMAAMAuMH0DANCurg9K8ObX23h9AQDoHrxvAwDa1fXTNwAAAAAAQHciKAEAAAAAACJBUAIAAAAAAESCoAQAAAAAAIgEQQkAAAAAABAJghIAAAAAACASBCUAAAAAAEAkCEoAAAAAAIBIEJQAAAAAAACRICgBAAAAAAAiQVACAAAAAABEgqAEAAAAAACIBEEJAAAAAAAQCYISeDtWcjIXKlG3AgAAAADQQXo4KGErZxgyvFtuRbLn6j/XbznZTY8zZW3stP+KrNHGfeVWpMqC2bj/UUuVpsfVj2nP7XCsDUvmnF3/f1N7PSu5+rE2LJn+4/r3sRNv28qCGdJ27zj+ffmPG7Zt9TwkMlpK9zed/9zK7poFAAAAAOg9PRyUkDSSV9lxVLZS3h0p5dcdOU71VlZ+pPEh9tywMlrS+LGwAEYwgJBV0dtX/RhSyip7+y8qu137NizdXDOVHGi1QUXW1LiWrg+7xz82riVlNBx2YT80LWeqpP45WxpIa/5iQVe8zITKt4X6PrxAyX8HgyeBoEVsrCDnlnQlEHCwH60qq5sNwQbdH1d/q0DMbNF3vhtvxdntTg4AAAAAoNf1dlBiRyWV7td/sucMDSurrC/Y0HABPXtV6YYAQj1A0J9eqt1bzwgYVqZ6Z0i2gv3VuJaCF/T+AMHKXY3LDazUghwj/p/d2/SQt8OhaTnnlmvtWUr3yxg1deXZ1caAwGJa/2+sUP95Pa9aSGUgrsG1kqw5Lwhyf7wW3KgGUS7PFFoGGqr7j1X35w+GBG7D19/s1QMAAAAAdLfeDkp4F/z+gIHkn2IxrFXrshLefTdPlOXMTGvaSWq5moGwYck0DC2fc+TMJHx7iSm92Hgxfrlk6ormvQwJLyvDf4Hut5LT8HUpa/sDH95jZhLucR9J2YagxbAyoVkJ7lSSWsaEna1laxRPL0lrNxuCAeZCRZUFs77Gw0ZJOlHypru4xyidq7erMBZTNWtDF5OKhUxdaTkdhkwJAAAAAEALvR2UaJq+4Yr5sgTcC273vur/tVHSqqRMojplolnT2hH+7AQjMAUkZM2F5UeryltZrZaqv6motFb/vf1VQebHydpzaJkpsZhWTDGlF8uK32peoyEx46iwWKg/XimZH8UUG5uX+eCKrA2pUlrVYDytad8xLg+5baquf1FZuKLxWlZJc0CmfpuWP3RDpgQAAAAAoJXeDko0CVsrwpS1Efjmf0qaD1xsJx81Tq/wBzaqa0ekrLI3zSOQHRCSLZGcKSg9ltTgs5J3T0kl1deXSMwU3Kkiu8qUkKqBgukhN8hQm0LimzJizw1r1Zr3pqDElL5lqjCV090HUrw2LSWuuEoqyQ1EFC66mSSlZ4Mq2tUVMsiUAAAAAAC8ud4OSjRN30gpb2UDC1EOKj4Q+OZ/Ma1YoIRlYsb3+5lEoJLHspJe1kVixqmt69C6Akdtr0rqprt45sqyVi8mm6d67CpTwmXP1TMlUlZZjp2V1m7K9GUmuOtMeO0ZSGv+4qoy8i+2GVP89KpKK5auPDA172WPJGb8GRBkSgAAAAAA3lxvByXCpm98lNRg+q43JeFmbU2Jpm//Q0tY1qtvJGb8lTvcBS9zK3LLYCYyjW2oBQ6WlTP6fdMgpMTHpgpf5ZRLrMr8qB6ScKeHBDMjQjIlvDUi3OkfKcUHpNKzJQ3G3X2lLs6rEAxo+AIZpWdL0v2Cln1VReInpPFEQeatFuthqFV51UCmxND09gti+hfpBAAAAAAcOL0blPDWhWiW0LQtDRuG+n2ZAI3f/peVHwkrHzrom+YgtVMS1C3LKSWDZUgH4hq8nlEmUNmjcXqI257sbEqp2axSgWwJdy2M6vSPenBiRys5Da/lVbYHNf5VNZRg6256SRqpZk/YyoVmegTPT7AEqq2ckZNde3w16OMrq7phyWyZRQIAAAAA6HU9G5SofFvwKkWE/K7khSsCGQKSvGob/SpNFQLlPxvLh7p2XxLUDTI0Tm1wsyFuKr5enfLhu2D3uBkJV6RbBV0+IenEZRVuSVcC60Voo6TV03HFVu5q3JuOUXueoWzlEqvK30orNjStom7KWrFkGsOS7ah42isFurKszOl4y4yJlnufG5bssCkf7nmtLJgyv026z4XABAAAAAAcSD0blCg9k8yPJGvUUH+6upCju9Bl/7Or3jf7V1U65q35sJJrWORyeki1cqDB8qF1u8+UCFqeq7bDC34MTctx5qUpN9hQnR6xfK5+IV8zkHanZFTXrhi19N/fFqQTknVrVfkpN2jRn5bMj2LevoYbggtu0KC+38TMVZUSJV31nntipizzQb+MREbZcwk1C1s0tB6EScxUp2bEFVfzlJP+9KCujsXc59KqbCoAAAAAoKcZjuM4UTfiTRiGoS5/Ct1jJSezdFmFsZjsOVOlj4PZJLZyxrKSwcUu3wCvLwAA3YP3bQBAuwhKoKPx+gIA0D143wYAtKtnp28AAAAAAIDORlACAAAAAABEgqAEAAAAAACIBEEJAAAAAAAQCYISAAAAAAAgEgQlAAAAAABAJAhKAAAAAACASBCUAAAAAAAAkSAoAQAAAAAAIkFQAgAAAAAARIKgBAAAAAAAiARBCQAAAAAAEAmCEgAAAAAAIBIEJQAAAAAAQCQISgAAAAAAgEh0fVCir69Pm5ubUTcD+2Bzc1N9fX1RNwMAAAAAsE+6Pihx6tQpff/991E3A/vg+++/16lTp6JuBgAAAABgn3R9UOLs2bP6+uuvo24G9sHXX3+ts2fPRt0MAAAAAMA+MRzHcaJuxJt4+vSpzpw5o+fPn+vIkSNRNwd7ZHNzU8ePH9d3332nkydPRt0cAACwC4ZhqMs/WgIA3rKuD0pI0uTkpH766SfduXMn6qZgj0xMTOjQoUP68ssvo24KAADYJYISAIB29URQQpISiYTOnz+vTCYTdVPwhrLZrB4+fCjbtqNuCgAAaANBCQBAu7p+TYmqQqGghw8famJigmocXWpzc1MTExN6+PChCoVC1M0BAAAAAOyznglKHD16VLZt69ChQzp+/Lg+/fRTffPNNwQoOtzm5qa++eYbffrppzp+/LgOHTok27Z19OjRqJsGAAAAANhnPTN9w+/p06e6d++eHj9+rCdPnujFixdRNwkt9PX16dSpUzp79qwuXbrEopYAAHQxpm8AANrVk0GJg4A3fQAA0Gn4fAIAaFfPTN8AAAAAAADdhaAEAAAAAACIBEEJAAAAAAAQCYISAAAAAAAgEgQlAAAAAABAJAhKAAAAAACASBCUAAAAAAAAkSAoAQAAAAAAIkFQAgAAAAAARIKgBAAAAAAAiARBCQAAAAAAEAmCEgAAAAAAIBIEJQAAAAAAQCQISgAAAAAAgEgQlAAAAAAAAJEgKAEAAAAAACJBUAIAAAAAAESCoAQAAAAAAIgEQQkAAAAAABAJghIAAAAAACASBCUAAAAAAEAkCEoAAAAAAIBIEJQAAAAAAACRICgBAAAAAAAiQVACAAAAAABEgqAEAAAAAACIBEEJAAAAAAAQCYISAAAAAAAgEgQlusQXX3yh999/X7dv3264//bt23rvvff0xRdfRNQyAAAAAABej+E4jhN1I7Czly9f6je/+Y1+9atf6d1339XW1pY+/PBD/fLLL/rnP/+pv//97zp8+HDUzQQAAAeYYRjioyUAoB1kSnSJw4cP6/e//73eeecdbW1tSZK2trb0888/689//jMBCQAAAABA1yFToou8fPlSv/3tb/Xzzz/X7vvggw/0448/EpQAAACRI1MCANAuMiW6yOHDh/XJJ580BCA+++wzAhIAAAAAgK5EpkSX8WdLkCUBAAA6CZkSAIB2kSnRZarZEr/+9a/JkgAAAAAAdDUyJbrQy5cv9cc//lF/+ctfCEoAAICOQaYEAKBdPR2UePr0qe7du6fHjx/ryZMnevHiRdRNQgt9fX06deqUzp49q0uXLunkyZNRN6kr0ee7B32+tzD2ugdjb38RlAAAtKtnp29MTk7qzJkzevXqlW7cuKHnz5/LcRxuHXp7/vy5bty4oVevXunMmTOanJyMugt1Hfp8d93o872DsdddN8YeAACdpecyJX744QeZpqnTp0/r888/15EjR6JuEtq0ubmpa9euaW1tTYVCQUePHo26SR2NPh9UkTV6RbpVUHog6rbsDn2+OzH2uh9jb++RKQEAaFfPZUqYpqnz58/rzp07fEDsUkeOHNGdO3d0/vx5maYZdXM6XlOf37BkGqasDXn/N2SE3nKyJWklJ3Oh0voAKzkZc/b2jdjFNpUFU7kV74cNS+aopW2O6rGVqz6XXYspPTWo8alt9h98zis5GaM55UZ3d6zKgrn9OQs53nbnhz7fnXi/6X6MPQAAotdTQYnJyUmdPn1amUwm6qZgD2QyGZ0+fZrU2m2E9vmBtArOVZWOmbKUVsFxVJyVpKzyVkpSSvl1R44zrYQkDU3r6rP+esDgNVRKq0qdiIf/csOSGbggr3xbkC4mFdt2r7ZyxrAyWtL4seagSi0osJJrDrgkMtL9cfUH7m9+jhVZo4aMhFRcvKy4pNJXprd9NUBhKxfYT396SUvp/sBxWwc0tj0/PvT57sH7TW9h7AEAECGnR/ztb39z+vr6nH/84x9RNwV76B//+IfT19fn/O1vf4u6KR1nd32+6GQlR6G3rFP0bzeSd8p2tsW23m22GH6UWTkpqxzeBDvraLbolK2Uk7Udx3HKTn4kfP/u7x2nbKUafm6wnndSI3mn7Nt/y2P7uMcPHHsk62RHUk5+vdqu6v8dpzhb/3/YvnZzzKptz08Afb7z8X7Tmxh7e6OHPloCAN6SnsmUuHfvniYmJkih7TFHjhzRxMSE7t27F3VTOs7u+3xWRceR4xSVrf2/rPyIf5uEphfTig1NNy8MZ2el2aL7/9fRfIkAACAASURBVJlEyP4rKq1JS89KoUevlFal68PqTy8pkzBkjl7R+Omi256RvMp2VimrrLKVcrdfMNX/wFTZcZR8FMg+WMnJmJLmF9P1LIuhaRXGYrLnWk1TcbMqYmMFTQ/FlF50n1PKKstZvKx4NRNj9K5KkvStm3kxfN13zF1lSoRlYux8foLo852P95vexNgDACAaPROUePz4sS5cuBB1M7APLly4oMePH0fdjI4T3ue96Qj+6Q3KaNgwZBjDytT+36/x++5vqxfz7vYVWaPeWhO7tbGswv2UUmvLoY8rPZPy647KVkpZuyxTgyrOJKSVZWVOx6XSqgbjMZWeLUmSYmMFOV7QITFzVaVj7sW+PWfIeJSs/S4oMdO8yr4b6Mjq6th2E0W86Sze9A195AZm3Ckv3hZW2dunP7DjyFkvq9xwrPbPTxj6fGfj/aZ3MfYAAHj7eiYo8eTJE/3ud7+LuhnYB7/73e/05MmTqJvRccL7fD0ToG77TInEjH/7mNKLSS0buw9MVL4tSNa85i+u6mbT4o+2ltdMJatVMB7dVeHiZSUk2Y8yyp5LqPRMig9IUsr71y+hy1ZKmYSh5XOtMjVatGvBVH96UMXq2hkBS+l+LzuiumZFv8bv19evqGVKeJkYlQUzENgxZExd0bKXHeFmYrR7fsLR5zsb7ze9i7EHAMDb1zNBiRcvXpBK26OOHDmiFy9eRN2MjrP7Pr99pkSzhKbX47q5U8UNSZKtu2nJ/Cim2NhVDabvBoIZ7rSQ0pw75SGjpApjMWnD0s21vC4PBYIW/j3P1adKSFImEbbQZT0zJGyKhfwBBMOQMfpX/XXUXQjTnb4xrenFamZFWfmR6iKgjhynsaRobKwgZz2vlD9TYmpQ44lW0zZ2c37C0ec7G+83vYuxBwDA29czQQkArexmTYmAgbQKu8hKsOeGtWrNexfvCV22VjUcCGbYc26WQ9lKKXsuIclW7lhB5q20tHBTqxeTinnrLlS3NwxDN9dSvmkTIetcSKplhmy3Dob/tvgH/aEhk8Qf1GjMlGgo4VktrXpsXEv+QEfCrbzgBkyaq2/s5vwAAAAABxlBCeCAWZ7zLsAV13ZFKmsLRyYyXjChUWXB1PBaXvO+9RpiY/PKrw371rNwp4f4pzXYc8OSXVBalq6kB33rPQwqPlBfG2L+4hs+0V2JKb3oBmiytuNbNyKl/Me+5zzgllbdPujRmFmx2/MDAAAAHGQEJYBes5KTkchoKX1F1kZC07U1Fdz/T1cXhKwuGLlhyaxtX9+Nf+HI4FoJ9pzhrtfQtOike5FvPuhvzDTwScw4mh6wZB4ryFyvtq2kUsh0krAKF/4Mhb3hZlskH1X3v6xkIMAgyVtTIrDWRjWDIiQ75HXPDwAAAHCQEJQAeoz9aNVbF8GtXNGqTGZ1ioL9VUHmuiPHmZemdrH9nKHhtbzKLRaQrF7kFzUsY9RSc06AN31jvaDkt6a372GtWpeb9rfz9I3AnnfI7pC84IIX1PCXER1W0au64ZueMWrpa2+bK5pX2Vp1f1fdfzWD4tzyHp4fAAAA4OAwHMdxom7EXjAMQz3yVBCC17cZ56S38fp2Ll6b3sbr+2Y4fwCAdpEpAQAAAAAAIkFQAgAAAAAARIKgxOvasJSrrqC/kttmHn5YmUBjz+eS++fG73hrtcDehiUzpL2d+HzRfSoLpnIr3g8blsxWfaK6eOSOt8a+Zs8Z9f1XreSodIGO4C6UGvwbbCu3q74eWGB1h+M0jQO/ldyOi6zueqzWVJ9Hi/cPv1b7azlW3bK9Dc9pw5JZfQ7e34va78Oe366eAwAAiApBCb+VnHfxHPIhSFLDh6OBtJLP+t3/D02HL8bnuKUGg8cYvi7p/rj63+CDZ5C/UkL1Vpz1lzn03Wbc5feaAhnHxrWkJY0HF0ecszvu+aKL+C8gPJVvC9LFZKAyhU+t3GawXOc2fQ2IXOsgwxXNN/0NdiviNPbtspUKWeDVXTS1IbDxmn9DK6VVpU60KAbc5litt2dYsqtlcd33yeDz3zZQsg177op0y9H0kK2c//leH3b3PSXNh1QIajCQ1tXT47pCgBIAgI5EUMJvaLpeJjGUu2p+9cNPYqYo3Wrj25eVnIxbq0opq2LIBVYqpPrA66uotJZVcrsPaqpf7BVnU17FhvoH49qFoPcBurOfLzrWRklLDXdUtPxgKbTcZ/DCxZ7r1/h9KZPYPhsH6AytgwyFsdbvLLsVGyv49l1UdiQuBQIV/ekld7y0yAwoPVsKudfT5littqdspQI7avybX5x177XnvOD3/XH1GzlZ/rYnMo3HqVayuV4NlA8ro4yGq0GTauByMa1YSDCldrxqdZ3rjSWGyaACAKBzHJCgRCDzYSXX8A2TPed9QKllSgSs5LwLoWAGRULTi+mmD4X1D1XL9X1sWDJvxVVeLKjgJLVcvQDbsGQa/SpNOW/8obXxW7R+jd/3lTZs8UFs9ZbpfWBrzJCofbBteExnPV90h0ppVbo+XOtT5ugVjZ8uehdVeZXtrFJWOXBhU5I16l5IaCSvcsMF3rzSA+HHagxehFzokMKNbuaf4rBR0urpuBINgQpfQDk0wF5RaU1aelYK3f3rjdXdS8w4ctbzSo24JXPT/rZ7+/Znk4RlADrnlpX7NrDjjZJ0Iu4GIRIZL4sip2U1Btv95wgAAHSOAxKUiCl5MaXVkvthrlJaVWpEKm1I7oe0lMyPWlwgr+Rk3Iqr7BR8F0L19FRzoRL49so/TSJZ389AWoXah8SEpu2sewF1bFyD9g6pp21oTvvd/oPY4FRhx0yJwpg69vmi85WeSfn1ap8qy9SgijMJaWVZmdNxqbSqwXgs8A1uXOlFr1/dkq5Ug2XPrm4bzAqdruS/bZsJBbyp5ukb/emQTIPXDY4NTevqsytuppB3Id7WegkbyyrcTym1thw67aO9sVp/H2wMYocHPMI0TCFsCCB6XxqErS/zKKnpsbgGq9M3vMcOxmNuEMPOelkU05qecd+3a188eGJjBYLiAAB0kAMSlJBi8UEtPVhWRVLp2aCuTkmFbyvuhzSZSoZ981qyZCakYtOFjDuNw3+R37Q+Q+BDYtPvHyVrF0rJRyFrOLwVKcVrz7s5U6KuV54v3j5by2u+8fXorgoX3Wk79qOMsucSKj2T1w/9/bFUn5fuzRmvfkvq9re72v2lD/C27HKNiDcIjiVmrqp0LKfcI/dCXANpzV8s7Gq9hMq3Bcma1/zFVd1s2r7dsRrzAodFZSVfELvFehV+3vQNzTQHxJ31vFKzyfrUPl+mlGNnq2eh6Tw3BLqvD8uYs2p/Q4JTN8iaAgCgsxyYoISGksreL6kkW8trccUH4tKzkjuH9nQ89ANi5oFkzma0vMsFumrf0q7nFcxJaEpDnUnUUnFDf/eawub+hgcadmjfTguHdcjzRadzp/yU5rxvU5V0v6HcsHRzLa/LQ4ELoZpqpkRZefkWSU3Inau+eFlhlz5N0zdYUBU9J6FpW8pcr68ZFBubl/ngyg5rrdi6m5bMj2KKjV3VYPpuYFy83li1525Ksyl3use2gREvs+LYuJa86RsJSYlzgxr/yq5vM1WQ+bHvPcG/SHIi497nr7DhZVOYC//t7j+RcTMlZtJKL5aVH2le36L19BYAABCFgxOUUELJ2VWVVtx5uLGBuAbXSrK8b4DCZKfSSn+c12piby5qmrIHgvPd9yBrYPfTN9y5xTuVX3zdFdPf1vNF57PnDC2f81LCzyUk2codK8i8lZYWbmr1YlKxan9sEqtP43AcOevhwYjqNKzm+eNU6cDbEl51InT6xht+U18prUryB8xjSi8WWq61Ikn23LBWa+uxJHTZWq0vGlnbps2xupLTzRPzunzCvdC/Wq3QFMoby8Eg9tC0ihpWbsVd2LZwMbBmTGimhJqqbxTG/p+7f982lYUrGle8/jejFmBpfZ4AAMDbd4CCElL8hFS4VXDn4Sqh5OmCCjtVqBhI6+psJiTVtVntW9pj4wrLSWjKEAgu7PVWswZKKslUciitglNWfsR/QVetjlHeNluiu54vopKYacy6seeGJbugtCxdSQ/qam1u96Bv+oYUnJ/vluKNhX+7ud00LOCtCATQtpu+8SZTODbccVN0itIuA+aVBVPDa3nN+9ZRiI3NK7823JDd0O5YtR/Jd1/z43crMVOUEoZungipUhKWKSHtqvpGbKzQsCaNcaykq2RIAADQcQ5UUCL2kSndV21Ry/gJael0cseylImZogbTLVJjn92VOWqppMAie60++IRV+FjJhVTGcC/I2s1U2O30jcrCTWVq01ZiSi/OS1PVbd268KELge3b80XQF198oZcvX0bdjD2XmHE0PWDJPFaQuT7tjb+SSvd9G10fllsCsK5xaoZbKtRVkTU1Ll1McrGBPdG5Y8/LXFifVsKbxrFTwNyeM9SfHmyxNlJZ5oP+lhlrO43VxMx0i/fPxspPw9dbt8+tGjUseZkWTdOtWmVK+FUX/QwzENegJCmrvLWq4TfMAAQAAPvA6RFRPJXirByN5J1y8BfreSclOZIcKesUHccpWyn359mi49hZ73dysnb9YdVtUlbZcdbLTtkpO/kR7+ddKFupbbet/77s5EeyTtEpOtlaO/1tabxfs8X9f7476KGuumvvvfee8+677zqTk5POixcvmn7fbeekbKW817/oZJVy8uu+fuLvB+t5J+X1uW325uRH3H04dja8X9a2c/tkt+m217eXvPnYa/W3NbDVrO/v7E632aJTnG2xr5C/wbX9txwbgXb4ttv1WG3a3nHCxly13Q3vC16bm//+e+euus1I3in7zqe7feA9yjvH1fOZssq+9jaP/+Ls9u87jL03w/kDALTLcBzH2Zdox1tmGIZ65KkgxEF8fW/fvq1/+7d/0zvvvKP//d//1SeffKLZ2VkdPnxY0sE8JwcJr290GHsHG6/vm+H8AQDaRVACXeGgvr5HjhzR1taWJOnw4cMNF0h9fX0H8pwcFAe1z3cKxt7Bxdh7M5w/AEC73om6AcBuGYYRdRMiVZ3jPj8/r//5n/+JuDV4Gw56n+8UjD0AAID9Q6YEusJBfX3939ZK0gcffKDPPvtMU1NTfFvbUkXW6BXp1vYlEjvdQe3znYKxd3Ax9t4M5w8A0K4DVX2jHfZceHUIe65x5W57rrnKRW4u17CauT1n1H/2V6PYsGT6K1O0KGsWytu2smDuWO++smDucrVxWznDDK8y4jturnpevCoa4bcd9oMd3b59W7/88osk94LoP/7jP/Tjjz/q3//932tz20NtWDKr53/DktnyNfJWuV/JbV8JZSXXvDp/sO/6tg3fV0XWaGDVe39/99rZ3E930SebxJSeGtT41DbjItjOlZyM0Zxyo7s7VmXB3P6ctX1+0Elee+y9Dn9fafk31RurIeO5PmZs5YJ9btvxH/L3OqTf2nO+MdGy/9rKGTnZgTK+Te1vamer7b1jruSaq3GE/S0BAABdjaBEC4kZrzyZ7wOaPefWUffXYU/MFJVVVkWvXFnKKmt6ZlrOuWUZXtDg5omynBmvcNrQtJypkvrnbGkgrfmLBV3xPuRVvi1o6fpw/YPZqKX/XjAbP6wFLg5rddh3CEzszFbOGFZGSxo/1vwhsfZBdCCt5LN+9wPh0HS9JGjDraz8yBs1BpKuXbum//u//2v/gmggrYJzVaVjpiylVXAcFWcltyReSlJK+XVHjuOV8xua1tXqa7pP7Dm3zOz0UPXixVPt71PSvOM0jK1d98mwC7lERro/rv6WF3BV7gWOkZCKi5cVl1T6ymy8MAq5cOpPL4WU3yUQ1ytee+y9BvurcS15fdUsXZbjjdd6yeXA39PZYu1vbdlK7XyA2vbufhpKOQf3H3hP2vVzmBuWbK9Maeh7QqvSoa2297KchqblOEktN4ytmNKLRSnBeAMAoGfsfUGPaOzdU3HLcGrHEm3VMmNFJ1v9v511Ula5ZZm3hlJuvjKZkhyNpHYug9hQKrHoZEfyTt53rHq5z92Vl6s9Y690WstSc00l5dxjb1N8tF6ucY/0UFfdtZs3b4aWI6za3TlpLp3X3Ie97UbyTjnYL1uUJfTvI+8rFbjz9r7+Fyz96fu5rT7pjbuduGULA+NjJOtka321sd8WZ1v34e3K77Z7flo5iH2+U+zN2NuFFn23sfSnr8RmdYx4j2ssxRkY6yN5p+wbU+HvSyknvx78e+0dr6HMaOv3s53Ka9Y1vzftttx19Vxt97eprX3tgLH3Zjh/AIB29cw7x76+CW570dP4QbBhu6bHuR/Kah8ifb8vzspJjaSaPmQ1XPzYWSdl5RuO13zR1lwjvvGDq9N88edd4DVdhNnZbWvcl1tdbM3mCUq8BbsPSoQE0EL6SUt2tvniOTRY5ew6QODYWSdrBYISvgut1+mTrYKBoRcstXb6LpSqAQqrevHjHXunQE3YeHzT8+PQ5zvZXr02jX22VUCsjaBEsM+t553UbN7Xx+u/r7+3bB9EbmhLoP/635+2C+I1aDU2Qo/dKtiwU2D8zTD23gznDwDQLqZv7In69I3txZReLCt+qzmNPDHjqLBY8FJXi8oqJfOjmGJj8zIfXJG1IVVKqxqMp71016KyI3ldHpLcFPTgvNuqipYfSPEWC/7FxgpyFtOKSUrMXFXpmNs2e86Q8ShZ+111X9ZoPXU+NlYISbt15Mwkd3visOcaXyNXRsOGIcMYVqb2/36N33d/W10Xxd1+u74UrmFdlUTGN62h9Tx441FS02NxDfqnKyUyGozH2uyTdYmZ5r7oprdndXUs7BFV3nQWb/qGPpqupdDXtrDKvrHpjXfHkbNeVnmHVPodzw8OrMSMI2c9r9RIXmWn1cKsJZXuv8lR4kovev31lnSlOgXp2VUVAuOi8W/BzmJjBRXGYt40xXnFv9pm3Qpv6mFloySpoCuGqdyc2Xr7UUvxGUfzutK8pg0AAOgpBCUCKsE1HJouJMLWd/Au9BIZScv1+efBx83ZcgMT7tz5Smm1/vuGhTGHtWrNex9QY0rfMlWYyuluQ3AhrrhKKkmqLFxR4eLl8Dm7K3c1ft+dk7/zmgEJXbZSyiQMLZ9z6utg1Lht9198NS30+cZrW+DNuK9RY4CsehHtv6CuzyNPzPi3jym9mNTybi6Y74+r38hJM46Ks9V1KqoX63mlZpP1PjmSr12814/VPJ+8cU0Jd5vt+2RrlQVT/elBFVvMZ19K98sYvatSbc2K/tpYMQxDw9e9DYemaxdejYEdQ8bUFS174yo2VmhsfzvnB5Bq66MMX/evozKszEjcDZiFqq55MqxMbR0V/3oLpVqgsrp2i+M47rpHhuGNAZf/b0H1b3tDW/zvab5Faq+kB3V1LNYUGCxbqXpAbyYhydbdR9Lg/UFdtQe1emK+vr23JlPtZy/4GBsrtDXuAQBA9yEoEdD87b938eZbXKyeEVD9oOTPlEjWLrTKVqrxYszb3l/BI2WV3cet3ax9mzx8vXrB5F3gD6Q1f3FVGZlK1oISMcVPr6q0YunKA1PzId8EVxZMdwE/73nEbzUvlFlV/QDan16SJGUSLRYVDFFbOG09r10su4a3bvtMiWYJTa/HdTO0r3iZGMfGtTSSV9m74E+cG9T4V3Z9m6mCzI99FxL+RScTGfc+f1UPL5vC38921yfrmSHBm/s4XwDBMGSM/lV/HXXbkLLKchanNb3oH+v+4EHjN9exsYLXx32ZElODGk/4A36veX5wINlzXl9pWOgy2A+LCubguVlz/r/5vj4ZyPKpZ0qUlZd/HHrvDdUMoYBqgKFh0U1/4GAm4Y7bY+Na2uXzrSwsK/5xUhqJK+4F+8IqWjVVxpmzAxlX/gAMWUcAAHQ7ghI7qCxc0fjpopxzy21WJ6ho+cGg8hdLWt5ovL+0llJ8QCo9W6p9sExdnFfBNy2j7PumSHK31f1Cw77iJ6TxREHmreZ09uU5Q/0PzNpFUfUb9KKGlfu2vl31wu/mWqrxWyr/bcdpKehs22dKhBpIqxD67aSXiREMQA1Nu31rRbLn+lW4ON+Yih6aKaGm6hvVi5Td98lYPTU9+PuwQOLiH/SHhkwSf1CjMVOiIYBXvSA6Nq4lf6DDC7C4ARNT1sZrnh8cSI3TNxzfdIrB8Cl33rgsPVtSJmFq+aNCSHZRK4Gxsh4ejGiwYenmWnWaYDP7q4LM9eagSSslxX2B9fD9Jz7OS+m7tSCD/Sij7LmEV1XIF6jx/01pWd0DAAB0A4IS21nJuRf2MwlpaFrJR9tNgbCVq6a2ztnSyl0VLl5Weiyp0pR/SkNJJZlKDtSDE7tpx/BaXmXb/22rrbvpJWmkmj3RWKM+OeOEzr1PzDia/qjxZ8dxNH9xF+1oofYNdhvfmCE6y3PeBbi2Swn3Tc1JeBcFO0jMFKWEWzY3OFc9NFNCqgcOFtOKbVgy5+w96ZO7567z0lgq0V3TJe/PZGi4IGoV9Gi1JoBr2/MDbFjK7WotB1vLa3mV100Vju02Q6CxrG1uRdJALHRtFn97zGPhQe+qxMz2fb5p+7HGfdlfjWtwKrD/gbSuzmZ0c6Eiydby9aySuw68AACAbkRQIpT3AS6wqF5ixlHyUWOqqD1XTYlfVrKa2npuWcatuDelIqHpqZL6qwGDjZJWT8cVW7mrcW86RqW0un1bEqvK30orNjStom7KWrFkGsOS7ah4etytKb+yrMzp+PYfMncQum5G8CKy6tldmaOWSgrUvW+xCCHeopWcN/f7iqyNhKZr3yK6/5+eCbxWG5bM2vb13fjnh+/0bWx1vQXZjq4+629Op26VKeG3UZJONIZJ2uqTr839Btkd24YMY1nJkACD+xwDz6uaQbHDQnw7nh8cbPfH1T8lXQ4LVm2UVH+HqMgaHZam0ooNpFWwpeG5ZQWnKdXWQ5G8bKRh+UdM41Qo31SuDUtmYlV6cEWW0ioEx4E35WJPeMH2sCyMxMd56cGyKhslrbL2CgAAvW/XdTo63F49FbdE206lEr0yoMEyiXbWSc1mnVTI48tWytFs0SuhVnRLsNnVOvBuKbVaeTjffhvr1VeP7d9/vaShu13rUo/+8nPBMmsNpUeDAmXgirMKL8vYUNd+l+Umd6mHuuqeaXVO6qX5GsvVht5mi77tfeUxt9m+Vgp2tlh7zZv7jm+M1EoA1tvjbt/cPn9fb6dP1p/7duVy6/uttqGhJKM37hruG8k7/99sY4ne0P1Xy4a+zvlpgT7fufb0tQkrTxt28/pieF9q/HtbG9PrgbK7oeolQdv9WxB+fP+4DisT2ljOs+WYcvzlrHfxt2wPS4Qy9t4M5w8A0C7DcRznTQMbncAwDPXIU0EIXt9mnJPexuvbuXhtehuv75vh/AEA2sX0DQAAAAAAEAmCEgAAAAAAIBIEJQC8BW7pzYbqNV61jdr/q1UBqotH7ngzGxbmtOdCquOs5GTuqqIBAAAAgCgQlACw7+y5K9ItR9NDtnL+yhPXh90Aw5Q076/yUSu3GSzX6TTcDwAAAKC7vRN1AwD0NnvOK1F43dB49c65pJyP5QYfZryCfxuWzK/iKnzsf6xXrvC+4StpmFJ+ff7tNB4AAADAviJTAsC+SswEsxwcOeeWlfs2sOFGSToR934oyRr1ghkjeZW9x5WtlFLWvNID4cfKJAJTPBIZLaX76z+PWmIyBwAAANA5CEoA2F9ha0Q8Smp6LK7B6vQNL4AwGI95D4orvegFMG5JV7xt+p9dVWEs1vJQzdM8ArfFtFo/GgAAAMDbRlACwP7zZTs4dta7M6HpQNCgtqaElynhX2+immHhZjzcVSmipwIAAABg7/RMUKKvr0+bm5tRNwP7YHNzU319fVE3o+N0VZ+/P65+X0aEJGklJyNQfaNeKaOaKVFWXv7HSkXHkbN4WfGQwzRN3zAMGf6FNbsEfb6zddXYQ1sYewAAvH09E5Q4deqUvv/++6ibgX3w/fff69SpU1E3o+N0VZ8PzZRQU/WN5qkZsfo0DseRsx4ejJAqKq2llF/vjSod9PnO1lVjD21h7AEA8Pb1TFDi7Nmz+vrrr6NuBvbB119/rbNnz0bdjI7TVX0+LFNCqpf+XEwrtmHJnPPnNNjK+TIeciuSBmLha0JsLKsgU8kWC2B2G/p8Z+uqsYe2MPYAAHj7eiYocenSJd25c4eU2h6zubmpO3fu6NKlS1E3peN0VZ9vlSnh56++cX1YhjHsKwManJrhlQqVJFVkTY1LF5M9sYglfb7zddXYw64x9gAAiEbPBCVOnjypjz/+WNeuXYu6KdhD165d08cff6yTJ09G3ZSO03193st8SGSUOhGXhpLKtqq+Uc2gaHnzTctYuatx5TW/TVWObkKf73zdN/awG4w9AACiYTiO40TdiL2USCR0/vx5ZTKZnTdGR8tms3r48KFsu9uWKXy76PO9gz7fXRh7vYOxt3cMw1CPfbQEAOyznsmUqCoUCnr48KEmJiZIre1Sm5ubmpiY0MOHD1UoFKJuTsejz3c/+nx3Yux1P8YeAADR67mgxNGjR2Xbtg4dOqTjx4/r008/1TfffMMHxg63ubmpb775Rp9++qmOHz+uQ4cOybZtHT16NOqmdTz6fHeiz3c/xl53YuwBANBZem76ht/Tp0917949PX78WE+ePNGLFy+ibhJa6Ovr06lTp3T27FldunSJOb2viT7fPejzvYWx1z0Ye/uL6RsAgHb1dFCil/Gmj4OGPg9Eg7GHdtBfAADt6rnpGwAAAAAAoDsQlAAAAAAAAJEgKAEAAAAAACJBUAIAAAAAAESCoAQAAAAAAIgEQQkAAAAAABAJghIAAAAAACASBCUAAAAAAEAkCEoAAAAAAIBIEJQAAAAAAACRICgBAAAAAAAiQVACAAAAAABEgqAEAAAAAACIBEEJAAAAAAAQCYISAAAAAAAg29SJnAAAIABJREFUEgQlAAAAAABAJAhKAAAAAACASBCUAAAAAAAAkSAoAQAAAAAAIkFQAgAAAAAARIKgBAAAAAAAiARBCQAAAAAAEAmCEgAAAAAAIBIEJQAAAAAAQCQISgAAAAAAgEgQlAAAAAAAAJEgKAEAAAAAACJBUAIAAAAAAESCoAQAAAAAAIgEQQkAAAAAABAJghIAAAAAACASBCUAAAAAAEAkCEoAAAAAAIBIEJQAAAAAAACRICjRJb744gu9//77un37dsP9t2/f1nvvvacvvvgiopYB+4M+D0SDsQcAAN4mw3EcJ+pGYGcvX77Ub37zG/3qV7/Su+++q62tLX344Yf65Zdf9M9//lN///vfdfjw4aibCewZ+jwQDcYe3oRhGOKjJQCgHWRKdInDhw/r97//vd555x1tbW1Jkra2tvTzzz/rz3/+Mx8Q0XPo80A0GHsAAOBtIlOii7x8+VK//e1v9fPPP9fu++CDD/Tjjz/yIRE9iT4PRIOxh9dFpgQAoF1kSnSRw4cP65NPPmn4QPjZZ5/xARE9iz4PRIOxBwAA3hYyJbqM/9srvrXCQUCfB6LB2MPrIFMCANAuMiW6TPXbq1//+td8a4UDgT4PRIOxBwAA3gYyJbrQy5cv9cc//lF/+ctf+JCIA4E+D0SDsYd2kSkBAGhXTwclnj59qnv37unx48d68uSJXrx4EXWT0EJfX59OnTqls2fP6tKlSzp58mTUTepK9PnuQZ/vLYy97sHY218EJQAA7erZ6RuTk5M6c+aMXr16pRs3buj58+dyHIdbh96eP3+uGzdu6NWrVzpz5owmJyej7kJdhz7fXTf6fO9g7HXXjbEHAEBn6blMiR9++EGmaer06dP6/PPPdeTIkaibhDZtbm7q2rVrWltbU6FQ0NGjR6NuUkejz3c/+nx3Yux1P8be3iNTAgDQrp4LSiQSCZ0/f16ZTCbqpuANZbNZPXz4ULZtR92Ujkaf7x30+e7C2OsdjL29Q1ACANCungpKTE5O6qefftKdO3eibgr2yMTEhA4dOqQvv/wy6qZ0JPp876HPdwfGXu9h7O0NghIAgHb1TFDi6dOnOnPmjJ4/f04KbQ/Z3NzU8ePH9d1337EYWQB9vjfR5zsfY683Mfb2BkEJAEC7emahy3v37mliYoIPiD3myJEjmpiY0L1796JuSsehz/cm+nznY+z1JsYeAADR6JmgxOPHj3XhwoWom4F9cOHCBT1+/DjqZnQc+nzvos93NsZe72LsAQDw9vXM9I0PP/yQVNoeVU2p3drairopHYU+37vo852Nsde7GHtvjukbAIB29UxQgjfB3sbr24xz0tt4fTsXr01v4/V9M5w/AEC7emb6BoCd2MoZhgzvlluR7Ln6z/VbTnbT40xZGzvtvyJrtHFf/z97dxfaRp7mff9XS7MvWSaTk5u1Ms5aYgMNgdzM+iBYgqYdk8AD3SeRiCFyQ3cIZJk7e5D1k56FlZ03SdDMekIPrO+DhpAE2jI4yDnpHDk4bppVmT7wTj+BhkBAMjZjLbuw7h7oaZZZ6jmoKqkklWzZll16+X5AxJFLVX+9lEt11fW/ruyqVJ5P1K5/PKeyJG3mlGjYtt+tdttm2l5vjdWsEvPl2vs2c0q426o81rMuv8dUnm9WZt3r1fz1qR2HkaalIAAAANAqghJAP7k8py3L0lYu7twR19yGJctyb1uau1z7EDMd05QWNXFq94CBlFHBWVd1G1I8t+Wsv6CMd/H7hZrtZkzvWPzH07LBpGYv5XXDN/DQnJmOSWZKUUWVsurHY8myUoo2eWy5uKb46cg+BwwAAAD0H4ISADyKKj6t/s9MG4opo4wn2ODeCvcl3b+l5KD38VOKOQGLUHKxcu9iMuQEMWKa8tmqmQ5p4qk0Fd0p4LF3A1dmlXj2UKaTlRG77QmuRKcq43IzL8y0oZnTW0qN7G97xTeLuy8EAAAAoIKgBNBPnk4oVBcwkLxTLGJay11T1Llv5vSWrOmUUtaYlt2Td+cEf/miJWvamzMwoORCbeDiWjGhG5p1MiScrIyFpAYqjykqN24odluVLA43yyKem60LeFTVBi9qAww1U0Q0oORCStHBpPKWpcJ9T2aImalkcKRGqs83f2WgdppHy8oqvpIW3xT3+kAAAACgbxGUAPpJw/QN28CVfCWQkL8yULnP/VmbRa3JCQacmpBfPkBD7Qgn+GEHC+qmgFSCBpFqIOOBdMN93Jtb1W37aJzmUXdbSKro1MvwrxvRyH2+dnBiVpFHO9S58Ksbsbms/NO44q+Wm9ecAAAAAFCDoATQ1/xqRSSU26wrWjkpzdad+I8t1Z6kewMbbu2IeG7LmeZRaAga2CGHYnU73m1cXHaCFw+137yD6LSdDSFVC3o2m75RCTJs5nQjOaxbVwbsx3vGbGdvOLUxphurSpS/yku5Wc1eWtPMHutYAAAAAP2KoATQTxqmb8Q1l8vUFaIcVmSwbirGQlIDdd0qak7ap6N1nTyWNeZkXUSnPUGGhukVbqbEluZkj80OGMiuYbFwTX5lIxumb+zSFcMda+G+J8vCM33Dmo7a01KaZIHsztTDpJR4Z0ADV25pOPmQbAkAAACgBX0QlOiwNogtKM8nqi0PN3PKuieCq9mW2yZKzvPcw3Zbes57Hc++2zLiUPhN33hnrHISXZ6fqdSUaPhs19dtqPvcRae9nTLsgpfZVdmfk+hU7Rhq6kpIDfUoNvyDEXbdhvqOIS126djMaebVnK41KWJpPsorsVHXHaRFZjqmtUoNjKiu5dYUozVoH+qC400LbWvrj0H1f8MPpNn6mh4L7Odc0wZ4M6eEJ7spUSlW29jGNzvfpPVwO58TAAA4kD4ISqij2iA2zrtvfnVXkjSY1NibkP2FayTVZA69zwnZatYuHvjUc/V5x22aytbP+/fcKl8W9zqefbZlxCFw6kI0iiplSjHDUOhZQrOVWg7eQMGW5i777TfDitQUo9xjS1BJfidyGhyQb0WJzWXlldBYkwKYzZ97TolTeSUe1AdDPK/CdL5pYc2dlOcTir2a87xudtePuVcxAm79qIOON352bFvrPdl3l/8qL10aa7rfHDYzfUN6YCk1YirrPXbdjtVM+6p0zKkrmKuIXeTWfl08XYQaAqMAACAo/RGU2NXRtUFsmHd/OSLVBSpCyUU7Pd25khOdLkgP9nBVZzUr48Ga4g3jt78MxytXwm12oCQm+RUP3JhT/HLtCddex7PXtow4HDudXJSLTrjiaV7L9VdrN3NKGCEVJ+tP2mv3G9seW4LejjXcVzs1w24V6oxSucmJ1k+QNnNKRNekZzeUU1J5q278I6kdi2m2wkwbCiWHVfDN/NhS4llo16vS6DfBtN2tbH2ntrWbxbrpS2UtP1v0yZDa399rM23YhXKfTihkZJXzHvvqM7HSpv3aVI4XMU1pqpqB5NapWUhqwBtM8QTi3dfHzlZxHn+A8QMAgMPRH0GJTmqD6E1R3Sxq7WxE0ZpAhX11J2N6r+RElVpINgQvql/elqvD2cwp8SCirYW88g3jD6k4adWciJXnEwo9S2jLsjS2VHdFbjVrX4VqOOHaw3gqr1FrbRlxeIpvpMQ7Um7cUCgpJ8PB/sIfenPL+fzdUvGUExBzp+d4r0RuelOhY56pHq49XsWtL4C5U9bN6kNNqDZAthN7OkZe+YVZabLZNKPqCVCTtVSyOEJOzYjKb9KGYq/mtGWl1Fj2UnL/NhQUI1W8n3TS8abBzm1ry8U16XasEhhPjN/QxNmCE0Cf05bz97q+e0+rotPVQPeWlVLSe+zz1nhx6rzUF5t1i+Bmv6pb8WZRcrM/6jMlJNVnq+x3/AAA4JBYPaL5UylYmctz1pZlWVu5uJUxLatwP27NbbSw0o05Ky5Z8twyZu0iW7l4ze93vDnjqGzfzFjx3Ja9Hed37jrt7WxZc5ftx8ZzW1ZzW9bc5SbPycw0Hbvva+UsV7gvS/cLPtvZ23gK9xuXr3n93ddgFz30UW0bXpPexvvbubrpeNO4jbgVv5yx6v+6W1Z1rPbYt6w5dzkzY+l+wfOcWjme7PA8K8fCZuN3tuvzmtjHJftY1fha+d/vPi933NVjrD/2vYPh9QMA7FV/ZEo0CLYNYnT6loqnssouTWk4MrBD3QX7qpj3qk5D0bSGIpJ1v18a8x+779XhqK7l4pqK+l2h29949tWWEQB6RtBtd6t2bltravmVp17L0kPlL9kZHebSlDIXoyq+cTOs4nW1ZPbImb6h6brMOXfK4P2xavaRJ/PBPZZIUaXqXis7067Z/a4DjhsAAByK/ghKdFwbRLuw4NTtjMacL0x23YUbLVRf97Q03JhTfRJqQ7rrdLQyZcT3dw73ebivUX3LxZ0K9u00Hr+x7diWEQC6Wccdb1y7ta21p+UV005dI43ZU/0qXWvqghZ75gRhTk1o8XJ12lP04rAmHpnVZSbzSlz1HAu8xZrdLj7eDiLOVJfEfNm/08l4Tv6TVQAAQKfoj6BEB7ZBtAsLTmm5UmxrQMmF/VX/r9fwxczvOThf6NxlZ17Fa+fzem/mfpokNrFLW0a0T/e29WtsG9usFkSzNoCNhezKyo0363TjMzY/9a0UV7NNakWYynrv9+lo0PAc0Ts68Hgjtda21kzbWXJbubgyF6OSTGWdrjWan9HapTENOHUp9s4JwtQHr0dSKijmtE8NKX9ptvY46JspoYbuG5XgTKWItPO4haTTXtjU8u39jBsAABy23g9KdGIbxM2cbiSHVbAKUnSXlqA+KlkMpybkV0e9ISOivoCYJyvBXXb20h4HsYfxVLTQlhFt0ANt/aLTt1ScrJ7Y+wXMCvc9G/CeuHj3w/pAglRXrNOodPiozw6qb8VoLq1pznsFdySlrUt5hRoCE1GlJosK+QQiyvMJ2oT2sk483qj1trXR6drpDmY6Jpl5JWUfs25VHl87JjO9czbdbqLTBSlqaOb0VmNHHL9MCalJ9w1PQNB93HhOkelbKp6KaS13S5o09DCSp7AyAAAdpOeDEp3XBtG58rSRUtT5oto4t9fHm4dKOGmoGW/rzmZV1v2u4jpXnJt9efRr+9bwRXCv4zmCtoyo0wtt/ZwT+4eH1bavLojhd6sJerjz7TdrszZCycXakyZ3/CMpFTRDJkSf6bzjzcHa1kanLaUGnWDyhttlpn5MZRVfxWs60+yFtyX1rTchGUZdoL5ZpoSX231jdVlTTycUSi9XHzdZVMiYUWTDUv5KVMkFu1YHLUEBAOgcPR+U6LQ2iJUrT+4XT/ek3LONUHK4UmvCfg6LWnwV0exCUknvlazKY0KaeGpfuaq0nVsac76M2SeKw5EBaSRlZ0Xohm9wotXpG3sZT3vaMmIveqKtnySNpFq/mukNDBiN7RhrDCaVb9oy0fs8q/tpeX5GU2cjGnD2oaY3T10U7+PRHzrveHPQtrVuED2vsa8aW5o6z1pFtVZrojyfsAOaZyN2ENIwnHam9nO3/1bYrVFrjwfOFK3olOKnI9LImDJulpXnGGcurdmZJhdlBycqQfXaYqOx29LUEscbAAA6htUjeuipwAfvb6Nmr0l3t/XzaTvbpG1sdfx2G8aCp81fpeWf85ztNrX2ePbSVtHerjNOp0Wu7+tmZpwWjD7j35iz4s5jt3Lxyv27tYrkM9+5eG96G+/vwfD6AQD2quczJYD+0u1t/Zw59nXZOX5TT2KVonV21wBPjoUGrjSfM17bVtE73kLD/fkrA3ZhwsvVK9LRq3Nae1DXindpSvFLYxrwaZsLAAAAoDmCEkBP6f62fn52KnTpTllyp6u00sbWfVwr88qLb4Z1a3K4esfgmBLy1gUwtXw74ykCWKehxgcAAAAAF0EJoMd0e1u/Bk2KobqdAtzMh8L9atHV3TMVylp+ptpMEe8cdadqf1lSdLp+Pv6Axi5J+a+coMfqsqa8WSEVReXS9jri3loZAAAAACr6KCjhtiJ0CmY13LwVv01l69oBuleIG66sbuaU8C5b6SBQVm587+0+m/NZX0Prx7qe94ahbDrr81wb2x1WCok13F+nZpvNXsu613O12Rj8Xnsc1H7b+h18u+1q6+exmVN2vlzbTcavs4yTreAtEDsc2aGU5epDTTxdVNH7Wa+fvrFDMcyBdxLSs2WV5dMq1LGYjKl4Mani0tTOY0H/amhP2+zm/F3ezClR99k3056/2avZJhlCezn+1T9G/q11azQ5PlbG6P7O07LTff4+6615TiorN153XPJ5HQAAQPfqm6CEfWLmtOH0rZxfvRpanp/RVE217qzM1YeaeKqa9HBjPKfyYFJ565aKp+wvTeajCS3ejjkdKKqt23Y92W+i0k2jbn2JeVO5SXdb7jYeKrJQOz8+dVGVk62tXNy5krylucv167dbsllWXsnBxuBGpX3kYFKzp2ecL77NXstq9XdJla4f/re6ZdF2u7f1s09UDtIir61t/RyLyZCMSWlMN+xuMm6QYCTldJZxt1FWbry2I0DxjTNhYiRV0xGj8nyja5rbsIMou03z8OV28NjMacZnOkzxzaIypv2629Nm9r4J9IlKMMz+u1zTYtmq/XutwaRmL+V1Y4+f2b0c/2z2PmU/RtLINc29ijX8jag9Pqlu+pTpE5i3W/2GfAIR5fmE/764uaz82Vu1x6VKS+KDtTcGAACdoS+CEmbavnrbUnvBzZxuvLnlaXlof2HTklSw6gr6Va6kRpWy8kpuZhWT9wtmtXWbfbK/97EPXLllt3H0rK9wX1pMzqh4ds5Z/5bmLsc1t9Gk7ZsTuKjOube/QNrrzzdJd/eOvTp/337MrBLPHrae3bDj1cCYpnZfAw5kl7Z+mxFds7YUedDaCfpht/WT7Lam8dyWCmcnNKPZxsDCSErWRkQz4zl9kQ4pf2lL+XeWK5+zmBsIqGTphDShiCLytuW1T9BuvQnZz6d++oZPm1ozXff7+pOjypQPS6kRp7bGg2rGxcCVvP8UFfQ9M914Yu8XzK78/XX2vdhtTwA9OlUpCuuepO/p+CfJDkjY+1T1MQNKLhSkaON4vFOmWpo+NZJSQTMtBunLyk0WdWs6Kq0+VP7SVrW1cUOR3FafHwAA6DjtaOHRCZo9lb204PO2Dax57Maclam0JPQu49P+r8m69q+xbaJU2wpxq9L20OFpQWh5fldpk2htWXOXa1+LLU87Rb+x7619ZMHKqNXn3tqyPfRRbRtek97G+9u52vbebMxZ8ftzleOInDa7luU9djX+vfaqOa7Vtc/d2/HPqrTv9WvB62zNytS3u23aDrh6HGl6/NitXa6ZqR6zcgWfdr7tOMY2Yt87GF4/AMBe9XymhHtlsjyf0MzpWUUe7TBvN11UcqGabVC5qjmYVKpydXPAs0xt+8Laq6j10zcar7q2JqqUVVBGccXdFN77BeeqkJMKG5UKzpVkM214rvomlCtqh0yJajqst3NBYr7YZCye9Fn3ufjWi6hmPzRcWfZd1nmdmCMMoO9E7OOIZcl6IN1w/jaG3txqyKpx/562OuVob8c/U+ajvBIbTQrOSnKn7N16E/JMX2zMlGicDiJ5jx+tjt9cmnKOSzekd6IauJL3ZCt6prUAAICu1vNBCUn2lAynwJ+dWl69beXi1XaD006ngvGcys6/ZmXOrP+XOC933dUvZ3Vppg1z23fjfolb1pg1q4Q7peJiUbl5JxiwNFZNlTey0rS3pkReyYh2qCnhBFWcug7uF8r8lWadAmqDMK7Gdo3VOhH1r7fl1BTwa/G4U2FBAOhNxWqw1+lCY1mWrIvLzpSgh3LDxNHpxiB4s+kb3na7rR7/otP2NMSdAsmJ+bK9noWkBpoEtv0D8PbxY/fOOFXRaUvWxpa23OmPTWq4AACA7tb7QYnNnBKnJrS4z4dHnJoLvifTTYIMlSJ7XrtWL/djz+PNaEoxb+ZFdEITSScX4XbMyTZoUlPCt9DfgJIL1RoXZnpGuh/X1H6L/jWIKlVTODTRUPhw0elcIGmfrw0A9AI3U2JLc/J2qbHrGFkL1+QXJnYDDN5WuDXHqOno/o5/bmHimrpKzWpFDFSyPGoyJVoNwG8WdxmbqeypkPOaJJT7quip4VKbjUihSwAAulfPByXsdNSDdHjwtFDzXoVq1k1jNVstslcnfrpZBsJOfKqle7prVG/+hTTLnkyPmitZ7pe41axmTs/q2mn7i+2tN6H2fLnztGyzi2mOadnIKps2lF2S9HRCN+bL9tW+BxFt7TmLBL2NNoDoN9UTfPvvvH8wosbmzt1dDnT82yxKl8Z2zF7b9fjSVFG5tL0v73RctDthuUWX80pe8XZyqi0mTaFLAAC6V88HJaLT++t6oc2i1ir/cb74eK5CebtRlIv2kuX5hH2CXZmGEFHEvfIVXVPinf1PTqj2eXfUdwqozzRwakosv5OvucrlbTeXGpHMJemWZ/6w3TWgtTGV57N2zYpmzkaqX2g3i1rTlNZObyl1UYrn5jScDGn5ItM24IM2gOgrnuB3pf3ywM5/FzedNr8Pmv/93PfxT2XlHjQes4pvFisdciSnO1RdpyY3w+LayEBNjSavxWRMxYtJFZematZXzw5opxSVqaxzIaA8n6itP7SZU6K+BTEAAOgqPR+U2LuoUgtJFR9NaHjS78vesrKGodht57+rWYWSkp6F9DCSrzvB9l75cr8c2l8+D3wyVZ8pMR1VpQbFqQkNm621IY1ON2kjqtoinZXn67odU+jNmJIRafFNY2Si/FVeOh3xjKmoW5a3gNqYUk4bSgpcohZtANFHKlPwqmrbglZbOGszp0R0TXp2Qzklla//Gz+SakPLWVNZI6T8pdm640dZxVd+y9cVdN5lukjxzaIypqXU4M5ZHu42q3WV8oo8sguA1hxnB5PKb0Q0Q2ACAICu1adBiepVqVBSDVeDavu619ZHsE+mqyf85tKa5jbyyi84J9g7dZpIm9JmRNeck/Hd6zdUrxLHbnu+qFa6a9Rv46EiC56TNaePfbP02p2DAbVXv+ozQ+K5LTsQMjKmjM9YQk5hNTMdUnHSrsYutxNH1L065gRt3Irz1JWAJK0+VHEypajKyhXHNKsb9klbJUuCkw/0kIapePW3apcJezpGXvmFWWmyheONrx2Of6tZGcaMIpUOHJ5MJSOkCfkFEXwyJdwtVYpxxhVxAhx2Nl5ZucnaLI9KtyvvSNM3pAfVbh7RaUvWdMQZU0gTithTXAaTyvt2/AAAAN3AsCzLCnoQ7WAYhnrkqcAH72+jXn1NzLSbmRPX3IYT/EsnVLyad6ZzPFSkSVp4L+nV97cX8N70Nt7fg+H1AwDs1VtBDwAAvKLTlqyrZZXdOfVOG8BZ2gACAAAAPadPp28A6Fy0AQQAAAD6BdM30BV4fxv16mtSnk8olBxWwXeOONM3EDzem97G+3swvH4AgL0iUwJAR6ENIAAAANA/CEoA6DC0AQQAAAD6BYUuAXSUShvABeeOaUuWE6iYeCrp8py2JKcNYHDjBAAAAHBw1JRAV+D9bcRr0tt4fzsX701v4/09GF4/AMBeMX0DAAAAAAAEomeCEsePH9f29nbQw8Ah2N7e1vHjx4MeRsfhM9+7+Mx3Nva93sW+BwDA0euZoMSZM2f0zTffBD0MHIJvvvlGZ86cCXoYHYfPfO/iM9/Z2Pd6F/seAABHr2eCEhcuXNAXX3wR9DBwCL744gtduHAh6GF0HD7zvYvPfGdj3+td7HsAABy9nil0+fr1a507d07r6+s6ceJE0MNBm2xvb2toaEhff/213n777aCH01H4zPcmPvOdj32vN7HvtQeFLgEAe9UzQQlJunnzpn744Qd99tlnQQ8FbXL9+nUdO3ZMn376adBD6Uh85nsPn/nuwL7Xe9j32oOgBABgr3oqKCFJ0WhU7733nqampoIeCg4ok8no+fPnMk0z6KF0ND7zvYPPfHdh3+sd7HvtQ1ACALBXPVNTwpXP5/X8+XNdv36d6uhdant7W9evX9fz58+Vz+eDHk7H4zPf/fjMdyf2ve7HvgcAQPB6Lihx8uRJmaapY8eOaWhoSB9//LG+/PJLvjB2uO3tbX355Zf6+OOPNTQ0pGPHjsk0TZ08eTLooXU8PvPdic9892Pf607sewAAdJaemL5RKpUkSeFwuOb+169f6/PPP9eLFy/07bff6vvvvw9ieGjB8ePHdebMGV24cEEffPABRcb2ic989+Az31vY97oH+97hYvoGAGCvuj4oUSqVFIlEFA6HVSwWgx7OkeGgj37DZx4IBvse9oLPCwBgr7p++kapVFI4HG7IkgAAAAAAAJ2t6zMl+hVXItBv+MwDwQh63zMMQ5LY/7tE0J8XAED36fpMCQAAAAAA0J3eCnoAABAErr4C3YF9FACA3kamBAAAAAAACASZEgD6EldfAQAAgOB1fabEysqKSqVS0MMAAAAAAAB71NXdN0qlkiKRiMLhsIrFYtDDOVJUt0a/4TMPBIN9D3vB5wUAsFddnykRDocVDoeDHgYAAAAAANijrs6U6GdciUC/4TMPBCPofY9OOd0l6M8LAKD7dH2mBAAAAAAA6E503wDQl7j6CnQH9lEAAHobmRIAAAAAACAQZEoA6EtcfQUAAACC19VBiVKpVPmZDhwAAAAAAHSXru6+0c9zwqlujX7DZx4IBvse9oLPCwBgr7o2U6JUKml0dDToYQAAAAAAgH3q6kyJfsaVCPQbPvNAMILe9/o5K7IbBf15AQB0H7pvAF3MTCeU23T+s5qVYRi+t+yqJJnKNv2dq6zceFam+9/NnBLjOZWrW1TW/X/975ptfzyn8mpWRtpsXD8AAACAvkZQAuhi0elbKk5WAwPx3JYsy6q5Fe57HnB5Tlue323l4vb9laBBM2Xlxg0ZRkxTTycUMgwZpya06P48nlN5JCXLKiijjAqWJcvMSPcLshZvX/N8AAAgAElEQVSSGjik538QbtAEQGdz/14BAIDeRFAC6GpRpSaLeri6+5J74wQhKoGHkIqTlh10cAMbG3OKuz93aOABAAAAQGcjKAF0u5GUUiMtLutmNji3UHKxyYIDSi44mRRO4CGlbJNMiaxMbyaFphQzDBnRKel2zJ4istSuJ9s+XH1Flams4UwrajFrKNskEGimPb9j+hMAAMCuujYoUSqVtLKyolKpFPRQgAC4QQBDifny7ou7Ls+pkIsrY9ZN32ii+GbRDmTseJImuUGMmuwJd/qGZSl1sfUhAkerrNx4TDJTikrSyDXNvYo1BB3K8wknUBDSxFNpKloNHCTmzV2CBb03/QkAAKBdujYocf78eZ0/fz7oYQABcYIAZqbm3sVkqOFKa+y2+9uoUgtJRbxruZJvnmWxmdPMq7jil+dUOD2j7JJfzYotzV2uPsR8NCFdGms8iRpJyZqOHugZA+1XVm48pPylLc9+MKDkQkGKeorIOrzBvJ0De0x/AgAAaFXXBiXC4bBGR0cVDoeDHgrQMXYqdOle6Q0lF+uu8vpnWpiPJjR8KSFJilzJK3XRL+hhXzWWJK1mFVNB+St+p1du54+QJhSpCYwAgdjMKWHYAYnGz2xUKeuWiqeq+8fAOwmtRY2GfSiUHNatK/Wf6N6f/gQAANAuXRuUePnypV6+fBn0MIDOMZLyDQhEpy2lRuysCDdI0dL0jdNzuvZO7fqrgY645jbcwIeb9l6XDTGS0tbpGScNPqqUGyjhqjA6gPkor8SG1SSIJrmf2VtvQvb0isGk8lZjpkTl8++D6U/tQaccAAB6W9cGJQB4bOaUnS/bxfLc4nnenytMLd/OaMwzZWM44n9SFr3iDR64mQ7ulJBFTZyqK8Ynu8ifN5OiPivDuywQpOh0XsnNJsUlPVlE0Wk3kFat41LzuW4WcGD6EwAAQEsISgBdbjEZkjEpjemGjKWxaibCSErWZNFJD5fcgn5ruWuVK7vFN073jV1PeqqZDoX7UjxX0Nx954quJ/shOl07daT2inJnZUpw9RWV7B9vhoLVLIvIyWao/1w32W+Y/tQ+dMoBAKC3EZQAuli5uKZ4bkuFsxOa0WzjCdJIStZGRDPjOX2RdubPv7OshJvx8GpO10bkaUfY5KTH065w+aKl/JWoklelG+7JVfqLylXkXTMlyJZAp9ks+mcoeFS7bzR+rn3bgzL9CQAAoCWGxeWHrmQYBleO0Ff4zONwlJUbvyE9yCs5WL3XTNsBuGpXDlNZY1lj3hoSmzklJqVZT6Cg5nGV30f00IhpqtkQLs9payGpYtrbLWfnZY8yMMG+h73g8wIA2KuuzJRYWVnRysqKSqVS0EMBAHQtU1kjpPyl2ZqAhFRW8ZXf8k5nDPd2akKLLW2n96Y/AQAAtEtXBiXu3bun8+fPE5QAAOzPalaGMaNIpQNH2TMFKaQJOVObamRU8AYINubkVp5wi7zGbscVGax7GNOfAAAAmurK6RtXr15VqVTq65agpEei3/CZB4LBvoe94PMCANirrgxKgIM++g+feSAYQe97bpcc9v/uEPTnBQDQfbpy+gYAAAAAAOh+bwU9AAAIAldfge7APgoAQG8jUwIAAAAAAASCTAkAfYmrrwAAAEDwui4osbKyIkkKh8MKh8MBjwYAAAAAAOxX103fePLkic6fP18JTgAAAAAAgO7UdZkS7777rkqlkkZHR4MeSqBGR0crhfpwdN566y398Y9/DHoYfYvPPHD0+v14CwAADpdhMbEaaBknxQAANDc6OqqXL18GPQwAQBfpukwJIGjE8QDg6NC+FwCA3kZQAkBf4kQH6A7sowAA9LauK3QJAAAAAAB6A5kSAPoSV18BAACA4HVVpsTKyooeP36sUqkU9FAAAAAAAMABdVVQ4ssvv9TVq1f15MmToIcCAAAAAAAOqKuCEkNDQ/roo4/07rvvBj0UAAAAAABwQIbFxGqgZYZhUIsAAI4QnXIAAOhtXZUpAQAAAAAAegfdNwD0Ja6+At2BfRQAgN5GpgQAAAAAAAgEmRIA+hJXXwEAAIDgdU2mRKlU0r1797SyshL0UKpWszLS5o6LlOcTyq46/9nMKTGeU3nHR5jKGoYMI6Hc5i7bb7a+1awS835bKSs3blTH467DfQ6bOSUM+/fl+YQMw/C5ecdVVm48q2avQHk+0WQcAAAAAAB0UVDiyZMnunv3rr788sugh1JRLq4pfjri/0vvyb67/Fd56dKYBvzWVQkCxCTTkmXllRy0gwj1gYGaoMIemOkb0gNLqRFTWcMTTLgds9c9Kc1allIj0sCVvCzLkrUxp/j9gv2z5Yxr0yfosZptGGcouajFZKht4wcAAAAA9JauCUq8++67unv3roaGhoIeSkXxzWLzX24WVfvbspafNT9Jd4MAW7l43YoyKlQCApYK9+17zbQh49SEFp9OKGRklfNmNkSnareTNmWmDcVuL2rilB34mNKUYm7QxA06LCQ1UBdMKX+Vl5oFXrxGUp7AhVV5LvHcVsP9qZEWXlwAAAAAQM/rmpoSo6OjGh0dDXoYHmUVX0mLKko+uQ/l4pp0e0ohSZKhtctxLZ4tyFqQsuNFXZss6kbxmmZ1Qw/3sfXotCXrak6JSWl2IakBSckrzi9Xs0oUryl/xTsuS9Z03UpWs8p+VRdw2CxKp8cqz3H52aIWny7KSNr3ZExLKd8RlZUbD2niaf391cdKki7PacsZLwAAu6FTDgAAva1rMiU6zuay8k/jir9a9q2pUHwjzW3Y2QIZc0sJDaswHZVWlzV1NiIV1zQcGXCyLarTNELJRU1F7Z8T88WWh2OmjSaZEs40DadeRE2WxtKYUlciGnanbziPHY44IYPVh5o4W/BkacQVGWw2ggElF1rIlCAgAQAAAABwEJTYp/JXeSk3q9lLa5ppKOZoavlVQmPuCfzSQ+UvXVNUkrk0pczFqIpv5JzgxxUZdE/oC8rIzkawLEv5Ky1Mm3Cmb2jaDhrMbXgCABtzit8fU9Rd9vKcttzfmRnnzqhSvtMryso9WNPcxYhTSLPuOdU/43Rj7YtmNSV2Kw4KHAX38wigs7nHJgAA0JsISuyLqYdJKfHOgAau3NJw8mFdtkRUqYWkimkn80Fj9lSKzZxmXs3p2oj/Cb6ZnpHuxzUVNXbpWuFkVpya0OLlOW1ZKUUlRS8Oa+KRWV1mMq/E1Wj1YU8nFPJkREiq7SDiZFMk5stOlkRCehByHhPTWpMinZIznaQuSyJjFpTxBEK2cnE7MDIdbbIWAAAAAEA/ISixD2Y6prXcrJKDkhTVtdxatWhkZRlDyxedk/OLUUmmsqfySjxISvMzzgm+XZdCkrSa1czpWV07bWdK3HoT2qFLhZNZsTGnmrKYIykVFFN2VTLTIeUvuWN0+GZKqKH7Rv7KgMwlqTCdtLdjZqTLc5q90trECzNt6IZmlRqJKjVZrARCbmiW6RvoGFx9BQAAAILXFUGJUqmke/fuaWVlJeihqDyfUOxV7Qn6wJVZzb2K1WQ3RKdru0yY6Zhk5pVUTjeSw7pVefywIoOSuSTPfY2Pb1V0uiBFDc2c3qordCn/TAnJt/tGdNrOvtBmTonomuYeeIIJI6nGdbvLGoZmXsWrdSlGUk4AJK7EO4QjAAAAAABVXROUuHv3ru7duxfoOMy0oVByWIWGq/0DSi5sKfEs1LReQnTaUmowp8SpvBIbzgm/iio+dX+fkv+khinFPPUYYrebj688n5BhxCQn06JS5NLVLFPCa7NYaQFank/IOJVXYiNfm3Hhw0xXMy1mL3nuMxLKDaZkWbPSJDUlAAAAAABVXRGUCIfDunv3rj788MPAxmCmDcVeVes3NLKnVBQUkzGeU2NFCGf6xkZeY18lnCBDTGu5a03W58qo4KnVULhv32sHDCa0eDZiZze40yOcQpV2jYcxLTcEAUxlnUyJ+OmINDKmjF/3jU07o6Ng+QQkKp08QppQRBE523OCNcU3dgeR5YuWrMrjPd05qCkBAAAAAJBkWEyqBlpmGAZ1CADgCLldcvjbCwBAb+qKTAkAAAAAANB73gp6AAAQBK6+At2BfRQAgN5GpgQAAAAAAAgEmRIA+hJXXwEAAIDgdXxQolQq6cmTJxoaGtJHH30U9HAAAAAAAECbdHz3jVKppEgkonA4rGKxGPRw0OfovgEAAAAA7dPxmRKSdPfuXQ0NDQU9DAAAAAAA0EYdnykBdBIyJQDgaNEpBwCA3kb3DWAHAwMDMgxDP/vZz2ru/9nPfibDMDQwMBDQyAAAAACg+5EpAezgt7/9rf72b/+26e//7d/+TT//+c+PcERoF66+AgAAAMEjKAHs4i//8i/1ww8/NNx/4sQJ/dd//VcAI0I7EJQAAAAAgsf0DWAX//qv/+p7/8uXL494JGgny7IISAAAAAAB6/hMiatXryocDuvOnTtBDwV9rD5bgiwJAAAAADi4jg5KlEolRSIRhcNhFYvFoIeDPlZfW4JaEgAAAABwcG8FPYCdhMNhPXr0SOvr60EPBX3u5z//uY4dO6YffvhBJ06cICABAAAAAG3Q0ZkSQCf57W9/q3Pnzunrr78mKAEAR4SitAAA9DaCEmi7169f6/PPP9eLFy/07bff6vvvvw96SGji+PHjOnPmjC5cuKAPPvhAb7/9dtBDAoAaBCUAAOhtdN9AW928eVPnzp3Tjz/+qE8++UTr6+uVLgfcOu+2vr6uTz75RD/++KPOnTunmzdvBv0ROjKGYVROdgB0LjrlAADQ28iUQFv87ne/UyKR0NmzZ/WrX/1KJ06cCHpI2KPt7W398pe/1KtXr5TP53Xy5Mmgh3SouPoKAAAABI+gBNoiGo3qvffe09TUVNBDwQFlMhk9f/5cpmkGPRQAAAAAPa6jgxJXr16VJN25c0fhcDjg0aCZmzdv6ocfftBnn30W9FDQJtevX9exY8f06aefBj0UAAAAAD2so4MSpFd3vtevX+vcuXNaX19nykYP2d7e1tDQkL7++muKXwIAAAA4NB1d6PLly5e6e/du0MPADj7//HNdv36dgESPOXHihK5fv67PP/886KEAAAAA6GEdHZQYHR3VnTt3gh4GdvDixQu9//77QQ8Dh+D999/Xixcvgh4GgD5HpxwAAHpbR0/fQOf76U9/ytSNHuVO4fjuu++CHgqAPsZUTgAAehtBCRyIYRh8Uexhvfz+cqIDAAAABK+jp28AAAAAAIDe9VbQAwCAIJAhAQAAAASvYzMl7t27p/Pnz6tUKgU9FAAAAAAAcAg6NlPi8ePHBCQAAAAAAOhhHRuUePTokUqlksLhcNBDAQAAAAAAh4DuGziQXu7OAN5fAMGjUw4AAL2tY2tKAAAAAACA3tax0zcA4DBx9RXoDuyjAAD0NjIlAAAAAABAIMiUANCXuPoKAAAABK8jMyUeP36s8+fPa2VlJeihAAAAAACAQ9KRQYknT54QkAAAAAAAoMd1ZEtQNyAxOjoa8EiwG1pG9jbeXwAAAACHqSODEugenLT2Nt5fAEGjUw4AAL2tI6dvAM2VlRtPKLe5wyKrWRlp01nWkGH43arrMNOGsqs+W5pP+N7fOB7/x+93/AcbDwAAAAB0D4IS6DIDSi7cUvFUVmbD75wgRHRKuh2TYTxUZKGgjDIqWJa2cnFlTPvfeG5WyUH7UdHpLUUeOIGCzZwS6fo1l5Ubd7a3mVOiJrgR0sRTaSraGPjwDyAMKDk5rInJnMpNnuGexoN9c98nAJ3NsiyyJAAA6GG0BEVn28wpcWpCi36/M6Zq/psxLaUWLCVXszKWxmRdLSphxOzHVpY1ZP+0KONNQQXFFLvt/OqpoWJuzg5o3Fbd8hkV3LvuF2RNR+2MjKUx++c65fmEHrr/Wc3agZI6IWOi+p/Lc9paSKqYNvY+HgAAAADoUtSUwIEEUnNgNatE8ZryVwaa/r42WGAqO17U2KW8Zp5Ji2dv+QYS9sL0Bg/qOQGGyuh2G68zvmvex3QIakoAAAAAOEwdN33j3r17On/+vB4/fhz0UNDVlpVNm3aAwljW2EJSEUnDk3lZF5ft1P3xnP4/t07DZk6J8ayyTWtQ2MuXZSprGIrdzmguF7ezJpzUYsvMSIpr7sH+gwvlPY8HAAAAALpXxwUlSqVSpSUosHdl5R5MSbclKeZMm5hSzDAUSi7atR+cqRSZyaT+d2RYa8WytFnU4tkxpRasSpChcD+uuY3q/62FpAYUVcqyZFkpJa94AhyGYWdnWPlKrQqvxWSoeXDBiMmd3DGw5/EAAAAAQPfquKDEnTt39PLlS3300UdBDwUdwaeDRnSq8STfyRow0zekSxnp/phS09XilpbV+LMkaTAivSmqXFxT/HRE5flEZZ2x24uaOOUtXOkzlqWxapDAG6DwjKlcXFM8t1VdruFWUMZ9unsaTzDvCAAAAAC0S8cFJcLhsEZHR4MeBjrGgJILdSfxZqbxJN/JGohO55WM1K7B7YxRyZRwfpYkDUY0/KqooqThiJ134HboqP+3OpYtzV12Vn47VhMskWTXlKjLZHDX7S+qlLvsnsYDAL2PTjkAAPS2jgtKAO22Y6aEIoqoqOU3UsRn2kVzdVMp/LIeJEllLT8b1thIq+vd73gAAAAAoPsQlEDP2zFTQgNKLlxT5NWiJk4l9PBNq2utnUrhVx9CkrT6UBNnx9R6r4/9jgd7xdVXoDu4QV8AANCbCEqgo5lpnxN/v5oSTg2HL9L27+Onq3M43OwI783NlLDXH9LE04wKVl7XTtuPGbiSV2rE/ndsyVAoWZ+50FqmhLm0prmrrYck9j8eAAAAAOg+hsXlBxyAYRhcwephvL8AAAAADlNHZUrcu3dP58+f1+PHj4MeCgAAAAAAOGQdFZSQpJWVFa2vrwc9DAAAAAAAcMg6bvrGysoKLUG7COn9vY33FwAAAMBh6rigBLoLJ629jfcXQNDcLjn8LQIAoDd13PQNAAAAAADQH94KegAAEASuvgLdgX0UAIDeRqYEAAAAAAAIBJkSAPoSV18BAACA4HVMpsTjx48ViUR07969oIcCAAAAAACOQMcEJdbX11UqlYIeBgAAAAAAOCId1RLUDUqEw+GAR4JW0TKyt/H+AgAAADhMHRWUQPfhpLW38f4CCBqdcgAA6G0dM30DAAAAAAD0F7pvAOhLXH0FugP7KAAAvY1MCQAAAAAAEAgyJQD0Ja6+AgAAAMHriEyJlZUVGYahq1evBj0U7NHx48e1vb0d9DBwCLa3t3X8+PGghwEAAACgh3VEUMJtBYruc+bMGX3zzTdBDwOH4JtvvtGZM2eCHgYAAACAHtYRQYmPPvpIlmXpzp07QQ8Fe3ThwgV98cUXQQ8Dh+CLL77QhQsXgh4GAAAAgB5mWEysxgG8fv1a586d0/r6uk6cOBH0cNAm29vbGhoa0tdff62333476OEA6GN0ygEAoLcRlMCB3bx5Uz/88IM+++yzoIeCNrl+/bqOHTumTz/9NOihAOhzBCUAAOhtBCXQFtFoVO+9956mpqaCHgoOKJPJ6Pnz5zJNM+ihHCpOdAAAAIDgdURNCXS/fD6v58+f6/r163Tj6FLb29u6fv26nj9/rnw+H/RwAAAAAPSBjghK0H2j+508eVKmaerYsWMaGhrSxx9/rC+//JIARYfb3t7Wl19+qY8//lhDQ0M6duyYTNPUyZMngx7aobMsiywJAAAAIGCBT98olUqKRCIaHR3Vy5cvgxwK2uT169f6/PPP9eLFC3377bf6/vvvgx4Smjh+/LjOnDmjCxcu6IMPPqCoJQAAAIAjFXhQYmVlRVevXlU4HCYogY5nGAZX1wEAAACgTQIPSrhKpZLC4XDQwwB2RFACAAAAANqnY4ISQDcgKAEAR4tOOQAA9LaOKHQJAAAAAAD6z1tBDwAAgsDVV6A7sI8CANDbyJQAAAAAAACBCDwoUSqVgh4CgD5kWRZXYAEAAICABV7okhRqdBMKXQIAAABA+wRaU4I2oAAAAAAA9K/AMyWAbkKmBAAAAAC0T+A1JQAAAJoxDKMy1RMAAPQeghIAAAAAACAQgdaUAICgUGQX6A7sowAA9DYyJQAAAAAAQCACD0qUSqWghwCgD1mWxRVYAAAAIGCBTt8gfRoAAAAAgP4VaFAiHA4HuXkAAAAAABAgwyJNAWiZYRhk9gAAAABAmwReUwIAAKAZwzAq0z0BAEDvISgBAAAAAAACEWhNCQAICoV2ge7APgoAQG8jUwIAAAAAAAQisEyJUqkkiQ4cAILB1VcAAAAgeIFlSly9elWRSEQrKytBDQEAAAAAAAQo0Okb4XBYo6OjQQ4BAAAAAAAEJLDpGy9fvgxq0/t2/vx5Mjv6HEE0AAAAAGgfw2JidcsMw2AeOgAAR4hOOQAA9Da6bwAAAAAAgEAENn0DAILE1VegO7CPAgDQ28iUAAAAAAAAgQgkU6JUKlV+DofDQQwBQJ/j6isAAAAQvEAyJa5evapIJFITnAAAAAAAAP0lkKBEOByu3AAAAAAAQH+iJege0BIUAAAAAID2odAlAADoWIZhVLrlAACA3kNQAgAAAAAABCKQ7hsAEDT3yitTsoDOxj4KAEBvI1MCAAAAAAAE4sgzJUqlkkqlEt03AASKq68AAABA8I48U+LJkyc6f/68njx5ctSbBgAAAAAAHeTIgxKlUkmjo6P68MMPj3rTAAAAAACggxgWOcwtMwyDlG8AAAAAANqEQpcAAKBjGYZR6ZYDAAB6D0GJHfz617/Wn//5n+s3v/lNzf2/+c1v9Gd/9mf69a9/HdDIAAAAAADofkzf2MHvf/97/a//9b/0J3/yJ/rTP/1Tfffdd/rpT3+q//7v/9b//M//6D//8z/1k5/8JOhhAtgH98orfwIBAACA4JApsYOf/OQn+sUvfqG33npL3333nSTpu+++0x/+8Af90z/9EwEJAAAAAAAO4EgzJUqlkkqlksLhsMLh8FFt9kB+//vf66/+6q/0hz/8oXLfX/zFX+jf//3fCUoAAAAAAHAAR5op8eTJE50/f15Pnjw5ys0eyE9+8hP93d/9XU0A4h//8R8JSAAAAAAAcEBHGpR49913NTo6qqGhoaPc7IHdv39ff/zjHyXZWRKTk5MBjwgAAAAAgO5HocsW/cM//INmZ2eVSqV0586doIcDAAAAAEDXIyjRot///vf6+7//e/3Lv/wLUzcAADgidMoBAKC3tT0o8fr1a33++ed68eKFvv32W33//fftXD3a6Pjx4zpz5owuXLigDz74QG+//XbQQwIAoAZBCQAAeltba0rcvHlT586d048//qhPPvlE6+vrsiyLW4fe1tfX9cknn+jHH3/UuXPndPPmzXZ+HICOZhhG5WQHQOdyj1kAAKA3tSVT4ne/+50SiYTOnj2rX/3qVzpx4kQ7xoYjtL29rV/+8pd69eqV8vm8Tp48GfSQgEPF1VcAAAAgeG0JSkSjUb333nuamppqukypVFKpVJIkjY6OHnSTOCSZTEbPnz+XaZpBDwUAAAAA0OMOPH3j5s2bOnv27I4BCUlaWVnR+fPn9eTJk4NuEodoampKZ8+eZSoHAAAAAODQvXWQB79+/VqPHj3S+vr6rsuGw2GNjo7q3XffPcgmcQR+9atfaWhoSL/4xS8ofgkAAAAAODQHmr4xPT2tH3/8Uf/8z//czjGhA3z88cf68z//c6XT6aCHAgAAAADoUQeavvHixQu9//777RoLOsj777+vFy9eBD0MAECfo1MOAAC97UCZEj/96U+1vr5Ot40etL29raGhIX333XdBDwUA0MfolAMAQG87UFDCMAy+JPQw3l/0Mk50AAAAgOAduPsGAAAAAADAfhyo+0arSqWSVlZWKh04ACBoZEgAAAAAwTuSTIlSqaSrV6/q3r17R7E5AAAAAADQBY4kU0KSPvroI7377rtHtTkAAAAAANDhKHSJpnh/AQAAAACHiUKXAACgYxmGUemWAwAAeg9BiQ5hpg0l5stBDwMAAAAAgCNzREGJsnLjhrKre1k+odxm8yXMtP/6yvOJPWxHkkxlnaswhpGV6f3VZk6JtFn9uf73nuWyTkChPJ+oXNXxu2VX3XXV3h+7LS0mQ3XLN9nebjZzShjO6+ezrQOvH+gBXH0FuoNlWUwlBACghx1OUKLhRDikiafSVLTJSXqDASUnhzUxmVOz3IHo9JYiDzwn3un60+uycuPuSbcdFPE/MV/WmPOFx7JSinofPzmhxdsxe7lTE1rUlGJ+4x9MauxNSNlVaeBK3l7Xxpzi9wuVL1PuLTViL5+3LFlWQRllVKhZpqDM5TltNYxnDwaTylu3VDyVUE72tgr3JSmjuVxcUlxzGwdYPwAAAAAAbXB4mRLOCXlx8f+Vzl/Ty5cvG07Qt3Lx6vKr2dpgQXRKejqhkPe+cTtIYabdQMeiJk4Zyn4lyQkehJKLTvDDDoTYBpRc2OXEfzOnxLgnCLL6UBNyl6l/TF2QQU6QZCmnshuQOeUJaDQNwER1LbemGc+0DTMdkyaTGjjwGxBVysorOWhngsRuS9KUJpKLkuzXjUwJ9DOuvgIAAADBO9TuG2baPRn2cXlOWwuek+/VrBLFa8pfaXY6bio7XtS1hf2dsJtpQ8sXq0GE8nxCNzRrb28zp8Spom55AxSPihq+PaWpnVZa/xxqtpdQ8WpeycHq9h5G8kqNlJUb9wZMdnG/IGv6IPkMprLGssaslKI1P5eVG3+oyELzbAm6bwAAAAAADtMhZUq4V+cz+vQ3/490/pru3r1rX5k0M5Limnuw/2yASt2IzZwS41llm07NqGZXRKctjS1Vi0kOXJlV4tlDmTKV9QYkJJmP8kpcHbODDjtlSiwkNeCZGpKYL1dqSsRuu9kIRm0Gx/iyxhashqyRprc9ByRqx2Nzp53ENFX5eQ+BEQAAAAAADsGhZkpUrFOD8VcAACAASURBVGbt6RhS8yv/3mWacTMT3KyKyEMZS2M166vPUNhpTLtmZhixljMlajIvWrHr841rbqOF57HD+u3nVyRTAgAAAADQkQ4hU8KnqOTSWPXK/8Vl30yGcnFN8dzWDlkDBWXcTQxGpDdF+zGnIzUdL+ozFLKrbg2Kult0yqfbRXU8klrMlPB5BZp14BivLdy50/O1C1O2C5kSAIDuRKccAAB62yEEJdyikluau+zc5S346GYHuCf4nhP74chOWQZRpdxlByMaflVU0fOYjGkXzqz/V7KnbtQX2Ixfjit+P9PYIWMhKc0n7BP4mkKb9f+vnyJRK2PWBRo25hSvW8Y3KOJpEdo+bocPb7cPz/sDAAAAAEAADq/7hqRq68kdsh4kSWUtPxvW2Eir640ooqKW30iRPUxvcDMYbmhW+clh6fQ15Z3MDW9njEpbz8rJe1yZ+04Qoy5bon66hpnOarnF8ew1U8JMNw+C7MWy271EEUUOvDagO3H1FegOdMoBAKC3HXJQonYqheHNOvAutvpQE2fHmtY2aDSg5MI1RV4tauJUQg/f7Ly0O33jhmYbAwkjKVmWXQSzfoqF/bgb0oO8rp2WHcR4IN0wDBnpxmaai8mQZk5f05jktCX13E5NaNFn+dYzJcoqvoor8U4LNSucehWLyRvKbUaVqhTxtH9OTVezQg7eehQAAAAAgP059EyJxOTdaueNJpkS5tKa5q62HpIw3Sv9TzMqWE7AQHaGQ2rE/ndsyVAoaWdSuNM3dipCGfWcqBedIMbyRUuWVVdscjCpvLc2hhPEKL5ZVMasbqOV6Rt7y5QoqqiExlrIDDGX1pwMlVsq+gaFPDef4ArQD7j6CgAAAATvULtvlEolRSIRhcNhFYvF/W4GAaH7BgAAAADgML11mCsPh8O6e/euSqXSYW4GAAAAAAB0oUPNlEB34/0FAAAAABymQ64pEbx2dazoDmXlxhPKbQY9DgAA2oNOOQAA9LajDUqsZncOEKxmawsvbuaUdZZ323k2u2VX7eUTPl0sGrtcZOUt72imfU7kN3NKeDpxVO5zx+ezLb/1l+cTnudUVm68dts7Kys3XtuudGcDSk4Oa2KybtwAAAAAAHSgow1KjKR0602o9ZPswaTGnOUHruSrXSzuFxq6VaRGVO2MYRWUUUaF+o4fl+e0ZVmyKi0yJcnU8iufrhabRenSWG3LzMGkZk/P2IGVwaTyG3OKV9Zp37Zycel+tb3pwJW83aljX10uBpRcKEjRJtkPq9nGgEh0Sno6oZBf0AZABVdfge5ApxwAAHrbkU/fiE4XpAc5lZudUN+O1bSqjE5vKbKUU9nNTDg1oUV3maYn3FFdy61pxpOVYaZj0mSyJshgtxaNacpzEp+dd7YTnarJsHC3MXBlVolnD+1sh8Gk8pNFhZyMCjNtKPTmlqzpuvamI6nG+xrYWRGNWRcxTWlRE/WtPZ1t7tRWtCZQAgAAAABAhznUQpf37t2TJH344YcKh8O7r3A1K2NpbMcTeDOdUPFqXkkns6E8n9DDSF6pkbJy4yFNPG1x8PcLsqajnsfXbEVZY1ljNRkVzVS3G89tKX/FE/ZYzdqBll3FNbfh95zqFlvNKlG8VrsN2cGQ2O0ma64f0x5Q6BIAAAAAcJgONVPi7t27unv3biUgYWcmuIUnd6uvUM0cSMyXKzUlYrdrswZCyUVNRQ0Z48saW9g5Y6DmNh2VVNbym4SuDbq1ItxtxjSlKcVqMhP+r/5vZTymJ6vhhvTAXuesblSXT5t2hoR3mxtzijdMK7FUuF/7zAfeSWhtqfGVMZfWlHinMcAQnW6WHZHRrX0GJAAAAAAAOGyHGpR49OiR7t69W/l/dNqSZWac/w0ouTCmZaNZYGJAyYXq1INKTYlmtwVnaobftJCam6c+w+pD5U9760bY2yzcj2tuo379/0f/Z8Edf0TJSgAkr+Sg3fVi+Z18XdCjVvmrvBY99Sace1V8Vbfg4JgSr2Zq60hs5jTjV/vCR3k+oVByWIWWMj0AAAAAAAjGoQYlPvroI925c2eHJaJKbUQ002IRyKYdOOq6ZOxUZ8GblVAurtl1Izx1KrKrppZvN9ZwaKxb4a0BEdLE09rH+C2//GxRmYtRnzalw4rUBBsGlHyQUL7SRcNU9lReiQfemhjNalDY2SNqyPSgIwcAAAAAoLMceaHLBoNJ5XctAlmVMS2fKRG1GluA1rYIdfl19EiNRJXyrt/MSJfndK2+voOTVWEvt6W5y7XZFfX1IMrzNzQhez3RaWeqR9qUVFTRrw6GW0TTMGQYM4p4ak40br9uvD7dSSqZJAAAdBE65QAA0NuCD0qoWmvCiE4pc9E/QGGms1pucX2tZUp4Mg08mRJuvYjEfNmeCvIgoq2GE/qicumE3aWjSaZETWbCZk43ktKcJ9Nh4ErenuKxWdTa5YgiOz6jRRX9WoICAAAAANDFjjYosZlTIjqlxeSNmnoJ3kKNDR0nZGc+zJy+pjHJLmrpzX44NaFFn+V3z5TwZBp4MiXyVyIae1DQcDIkIzql+KWxhgyDxeSMdDWvvNU8U6KmxsWpvBINmQ628lf5hvFXgjRLY5X1jS15i4QCOCiuvgLdwT0OAgCA3nSkQQnzUV6JDUuWNStN7lSM0uleIan4ZlEZ06q0tWxl+karNSX8DWhg0JnCsTEnJUM19SHMpbWa9p07Ws3KiEoFq3b5StDBqf+QmUxqwJO5sXyxsVimG7ipdPioqxHRSrYJAAAAAACdxLAOcPnBMIymVy/u3bsnSfrwww8rLUHRXXZ6fwEAAAAAOKhDC0pEIhGVSiUVi0WCEl2KoAQAAAAA4DC9dVgrvnPnjtbX1wlIAAAAAAAAX4eWKYHux/sLAAAAADhMHdESFAAAwA+dcgAA6G0EJQAAAAAAQCAOraYEAHQy98orU5SAzsY+CgBAbyNTAgAAAAAABOJQghKPHz/W1atXtbKychirB4ADsyyLK7AAAABAwA4UlDh+/Li2t7cb7n/y5IkeP358kFUjYNvb2zp+/HjQwwAAAAAA9LADBSXOnDmjb775puH+O3fu6NGjRxodHT3I6hGgb775RmfOnAl6GAAAAACAHnagQpcXLlzQF198oXfffbfmfoIR3e+LL77QhQsXgh4GAAAAAKCHGdYBJlW/fv1a586d0/r6uk6cONHOcSFA29vbGhoa0tdff62333476OEAAPoYnXIAAOhtBwpKSNLNmzf1ww8/6LPPPmvXmBCw69ev69ixY/r000+DHgoAoM8RlAAAoLcdOCghSdFoVO+9956mpqbaMSYEKJPJ6Pnz5zJNM+ihAIeKEx0AAAAgeG1pCZrP5/X8+XNdv37dtxsHOt/29rauX7+u58+fK5/PBz0cAAAAAEAfaEtQ4uTJkzJNU8eOHdPJkyf113/91/rNb35DgKLDbW9v68svv9THH3+soaEhHTt2TKZp6uTJk0EPDTh0lmWRJQEAAAAErC3TN7zi8biePXumv/mbv9F//Md/6Pvvv2/n6tFGx48f15kzZ3ThwgV98MEHFLUEAAAAAByptgclVlZWJEnhcFjhcLidqw6cYRhcWQUAAAAAoE3aHpToZQQlAAAAAABon7bUlAAAADgMhmFUuuUAAIDeQ1ACAAAAAAAE4q2gBwAAQXCvvDIlC+hs7KMAAPQ2MiUAAAAAAEAg2hqUePz4sc6fP6/Hjx+3c7UA0HaWZXEFFgAAAAhYW4MS6+vrWllZ0fr6ejtXCwAAAAAAelBbW4KurKxIksLhsMLhcLtW2zFoCQoAAAAAQPu0NSjR6whKAAAAAADQPhS6BAAAHcswjEq3HAAA0HsISgAAAAAAgEC8FfQAACAI7pVXpmQBnY199P9v7+xCI7nS8/902Hhjg2d9E7blSKwbBjaY/+yCLhZ1w1xEeMiFfTPdSKCWb4YBh0QLmQjtBtItJUjdsARZrGGVC/8Rc+MuBQ2ludj11ZjGxtClK4EZMLsgKC8S6V4I7Ngm8bKQnFzU1zmnTvWX+nueHzT2qKuqT328dc55z/u+DyGEEDLbMFKCEEIIIYQQQgghY2FgTomPP/4Yf/VXf4V79+4N6pCEEDI0hBBcgSWEEEIIIWTMDMwp8cknn+Djjz+eSSlQQgghhBBCCCGEDJ6BSoIGTolZdUxQEpQQQgghhBBCCBkcA3VKzDp0ShBCCCGEEEIIIYODhS4JIYQQMrGkUqlQLYcQQgghswedEoQQQgghhBBCCBkL3xp3AwghZBwEK69MySJksqGNEkIIIbMNIyUIIYQQQgghhBAyFgbilPjiiy+QyWRw7969QRyOEEKGjhCCK7CEEEIIIYSMmYE5JYIPIYQQQgghhBBCSDcMTBL0448/xmuvvYbXXnttEIebSCgJSgghhBBCCCGEDI6BOSWeB+iUIIQQQgghhBBCBgcLXRJCCCFkYkmlUqFaDiGEEEJmDzolCCGEEEIIIYQQMha+Ne4GEELIOAhWXpmSRchkQxslhBBCZhtGShBCCCGEEEIIIWQsXNsp8cUXXyCTyeDevXuDaA8hhIwEIQRXYAkhhBBCCBkzA4mU+OKLL/Dxxx8P4lCEEEIIIYQQQgh5Trh2TYnXXnsNrusOoi2EEEIIIYQQQgh5jhhIpMRrr72G1157bRCHmijeffdd/Nmf/Rnee+895e/vvfcevv3tb+Pdd98dU8sIIYQQQgghhJDpJyWYVJ3I119/jT//8z/Hn/zJn+CFF17Al19+ie985zv44x//iP/5n//Bf/7nf+Lll18edzMJIYSQmYVKOYQQQshsQ/WNNrz88sv427/9W3zrW9/Cl19+CQD48ssv8c033+Cf/umf6JAghBBCCCGEEEKuASMlOvD111/ju9/9Lr755pvwby+++CJ+97vf0SlByBTD1VdCCCGEEELGDyMlOvDyyy/jb/7mbxQHxD/+4z/SIUEIIYQQQgghhFyTa0dKpFKpmVfgkKMlGCVBCCGEEEIIIYQMhmtFSnzxxReDasdEE0RL/Omf/imjJAghhBBCCCGEkAExkJoSX3zxxUxKgsp8/fXX+PGPf4xf/OIXdEoQQgghhBBCCCEDYOCFLn/zm9/ggw8+wEcffYTPP/8cX3311SAPTwbIjRs38Prrr+ONN97A22+/je9///vjbhLpEtrZ9EA7Izq03+mB9jub0AanB9rg9EI7mx4mwc4GWujywYMH+NGPfoQ//OEP+NnPfobf/va3EELwM6Gf3/72t/jZz36GP/zhD/jRj36EBw8eDPJxIEOCdjZdH9oZkaH9TteH9jt70Aan60MbnE5oZ9P1mQQ7G0ikxH/8x3+gUCjg1q1b+Nd//Ve88sorg2gbGSHPnj3DT3/6Uzx9+hS2bePVV18dd5OIBu1s+qGdPb/Qfqcf2u90QxucfmiDkw/tbPoZl50NJFKiUCjgzTffxPvvv8+Hb0p55ZVX8P777+PNN99EoVAYd3OIgX7srHVcQPUs6d8OqqkUUvpn1UJLOYqDqv+31nEhvn2wz1kVqVQVjtYGZy+F1J7+VwBXFgrabzl7BVhX/j/Oqigct+L7wUE1VYWT1H6pDfrxjG1PpfxrYj6efP2AFqxV6Rxj5xBdK9P50c6eX9hPTj+03+mGNjj90AYnH9rZ9DMuO7u2U+LBgwe4desWyuXyINpDxky5XMatW7cYHjdhmOws7iCIOwR00mtbwIE0UV6poamEcDVQCbeWJtiP1jGXSmEDh952lzXkdxvRfidFpJdKEJcZ7KeqsKS25XYA7OSUthaOW8B8EYd3bWwYHQ/JOHs5wCkhiyxKxjC0ErL+ttntLbib0fnmrWZs+8audHDtejStvPf3s6rZsRLSgrWaQiqVQ9m/VqmFdZwG/685J2hnzxfsJ2cL2u/0QRucLWiDkwntbLYYuZ2Ja/AXf/EXAoD47LPPrnMYMmH8/ve/Fzdu3BC//vWvx90UIoT49a9/LW7cuCF+//vft9mqISorNdGw8gJA/LNyKA5X5H/XRNPfpymEaOzmRe0yOk5TyP+v/c1w/IpjblXTygvsNtq0uylqKxXRuKyJvKnd2vEbuxB5q9nbBXQq3v5OxbhvYzc4vnyeUfuDfb3z8NsrmqK2YmqjdIzLmshrx5OhnT0fdGe/ZNqg/U4PtMHZhDY4WdDOZpNR2tm1IiX+67/+CwDwgx/84DqHIRPGK6+8gnfeeQcffPDBuJtCAHzwwQd455134mFwcnrDlYvzWxlk12wlCqBp5VFxBMTJ3+HvTqTV/1sZpPttkDGawIsUkNMtnD0/smI7G7Y3nhqSRvGkhOx8EbYQaOzmUbv0j+1UwsiG0pIXGbJ/swl7La2mZXRiqYTSUpfbBpEN/meueJqwYRrFE//c/etRQjUhUsIcwUI7ez5ItF8y1dB+pwfa4GxCG5wsaGezySjt7FpOib/8y7/Ev//7vw+qLWSCeOutt/DRRx+NuxkEwEcffYS33nor/sVSCVsXG97k/MoFbmaMdQwUzqqYKy6iETgKEmnBWg0m2NJEe68ufS9Ptr1J+tbFHFJ7DlrHBeR2gNPiXJS2kS17k34/DcLZk1I5uiC9ZsNeS/vOiUNkHprrQ6RSKaT2fuWnU3R/fADASg2NwJEjp28k4F6cKufUK7Sz2SfRfsnUQ/udDmiDswttcHKgnc0uo7KzazklPv/8c/z1X//1oNpCJogf/vCH+Pzzz8fdDALPzn74wx8av8tub8FdqKL6pIzFTLp9nYYrC4VsGUAZuY6TaM/JIPR6DdvLbffKbguI7SzSWsSG8rlTR/XM39bxKlgEDorczinWFyInRujUCNp7ZWGjuIittbS3vxaxEdaM2H7La79TUdqnOEnkmhde61E6KSIjX4U1OznK4srC/tM88is1NG7uo/rEVLOiidpK8vWinc0+7eyXTDe03+mANji70AYnB9rZ7DIqO7uWU+Krr75imM6M8sorr+Crr74adzMIOtlZFiUHKO9UsOxPntNrhyg83oilNzgPbRQcv0DlnToKx27wDeo7p1jfTIqwkApedkIqCBmmWARpJlcWCnuOMZ0icDA0dhFGKcjpG2I76+2/sI6khIpuaFfoMigcOlc8RTmrFeU04Dxcx+JdrypxZs1G6Y7J6TGH9UfJ7aGdzT7sJ2cX2u90QBucXWiDk8Ns21mg+qb/rYdU4ilmVHY2EElQQsj4aLnnAMqoh9KVaRRPbBTn1e2y29Lflkqw1/yYgLM6yit5xBIV9FSQs6qUvuHCRUaJKgjaUrmTBdCC+7THE7mysP+0hvsJkQnOQxuFS1kdpEeWSrDX4pU0sttezYogukN2jLRN37hZw/3b6vEjR4dUG0NSAyFEp3Vc0BxfemqUum1iylJbFR5pQNWlkowqhSsdaU/6rhdJ3CRJ3kBOeM9pe+7GlmqSxzE6nqt2jE7pb+Q5ogVrVZ1wJD5vVxYKiVLSBqe+YXvzR/793mxDbnMnGzDbSfz8VaTzaiO3rRxXqSvVrSQ5mRWG19dpz5KfQpz8bKnb67XQzLaQQxll5OT9VvdRhhTdK/dnxn64jU0Fi3aG65D4zjHYSsc+MYF+9xs0dEoQMs346QwN0QCyvQ5YsiidZHCULaOyuYXF8G9FpNGCtWmjcFD0CmI+WsfcQQbN7RJKJ0XgeB/lR+vYOG5JKQ4t1B8DmXkAcOE+WvT/X8fgcb6yUFiQfs/U2u24o6VrrixUj1vqoMhYeNNBXYo6AeClxZjasya3Ve3klDQUDrRIIp7NLF5saNE16uBHfn6UaB9dmteYLuQNqDwZXQBL91F7mosNQKJBnBfdo0YLOR0mRF1I4i6VfMnhChp+JBR2G56csOmIfUgex47hniN/U3ed+hgGga1PbeDucv9FgMnsclaNRdEpzgfJDjvVIlK392w2jBDsMvUPQAdniEd6zUbz5n772kpLJTQQfycASX14HFMUYhDlGNpyUFcqlUIqVcdyIEMuF89OeB+QaWfIfV3wDF3WwgU21aa0Ba1ge6cCoB6O3+IS9lX8/7052Hebav8lGlhEITpGcLyTItJLJQixjPoQoyich9J4WXIKqu8o7/cH0ZeOCjolCJlaHFQXbBQuS8j6aRz7vRR1vLJQSOVwbjW1dAoH1dU6lk9sFOcdVFM5lMPJgzf5mHvsvYy3LuaiF9xVHbbviHD2cijvLidHCKxkkLmyUMieA483YKEIW2hOh4TIhl45Lc4htQksYwOpJ8vRoGepBLHpSuoY3uTt3Lofttu9OA3bItoWB82iJKWD5K0GarscaJEOnB1h/dYWStu2NtgKBj7XfX5asFa9AVVk42kUTxpANj5gkiOE2kcL+U6I0PEwB3dTm2Bc1pCXB2o9tlytS9NAZSUDaIOrcACW4PQL7dfElaulgrVQf3xqrDszCStIZFSYIyRST5bVybY/EVEi+2RFLBlZ1Ul7Vp29uBMwlTL8vj6BCxxq0oQ+yRmSlNIpk91uAAfBKm/ChDFVhWNwQFafAIAbFpfWbSe9Zks1n5qoreRRuywhc1xQHZm0tdll6H1dHNWmcii33Vprh+TI+H/bAvbtOgopOVpCem59Z9uR8uxmURLBGFp2wqgLVsbnPdHJEIy1Lbh3gmMXYM1HUbpy3y38MfUg+tKR0Yt+qM41dycTDu/vZJB0Hxq7EBXH8MVlTeQBAUAAFdHQv9ttCOFUtO+aorYS7AOB3YZo7Gr7+8eN/eZlTeRXauIzKx/ttyv9qlMReasphGiIinL8vKhdGn7b9AmP1xAVpd3SMREcL6Jp5UXeaorGLvw2JFyvlZr4ZbCNfP1WaqLpnwP0v0n7NqXvw+sjH2e3YfxpIWhns07y/fWe+5htxD7Rc9208u3tRLZ5//lLfO793wy/V94b+vGaorbiHVd+7zStvNlGjPsnt7myW/FtJPqd6L0hoveWfgWtvPkdKF3fJNvTr2V+Je9v2xAV36bzVrPDb9B+p4He71FDVJAX+ZW8qFnRcxA8S41dQz/g96vxZ8Z/nuTDX9ZEfrcW2YT0fdBnec+v3KdJfV/we0H/I+1rflb990ubfiiOZIumf8u/LduqEFLfrrehIhpOJWyH3t5OtpYEbXAyGFtfpx9zt2F4lmQ7VLdP7iMlEvqg8Ayl30seb+o2HW1vugb6ceVrGbW90X78LL2X2p1HN7Y3CjtjpAQhU0pQCyHGfBF26BXV6hnMF2FvZ/36B/J3mtrGdtYvPilt4x839pvzRdgnRfxgzY72k6MKwoiHKJrA2y6IjEhQ+tBCQP2zRklpt3RMPdICkYxodlskR1347X8r2Ea+fnJUhcmT7++blr4Pr498nI4SrOR5o3W8oRZBDVc85dWjeAh3tyGtXg2WNs+9bztbF3Pe6oj0vKqrLck1UbqXxPVtXI6eCNI3hEDpjmGXfiSPZa7qsB/lkX9aN4aquhdA7TI41yYK8KWSz+oo38oA7jkWM+n20RZkRsmiJA5RAIDbXv+VXjtE7akX1l2/M4gV3UzU7x0AG8GK5cXWQCIEFc7qKO/WUHu6b4iWaEURDood63Wj1H+3PrW9KKlu7NGPyiyjjFy27IfHVxEKjE9IPjsZDsPu64JjNoJonI7jLa/vC/q5QGreVLdCeS6VtI5ULNIgPPq2wCE2OtdykbaPzm8L7oIhgiGMtKpj+STa3l7LongSROiqKVRNK++lL163Lx0hdEoQQgghI8a9WERDlqwNQ5jlsOm4ektSjROd7LaN4lWbAnR+ga/stlBSs2IDoaSBVR+SuM7DdXPNhoT0qJ4kjzVan9qAdYjDu+eGtDYH9acFLAdOzCdHsO96aVvOkzIqd7JwL4L6OPmu8+rJDHFVh/0IUt2GDeAgcDx3U3QyCNuW0xPktAwp3WETOAxs5k7dn3wcwU06dDCx6IoWrIMyKneKKG4uYv2h3uq0UT47cM6Z3zYOjh7DczBuutg4OPd+yZ/YRTWVpGu02wjfB957ooT2AuNkVhh2X2eScwfapG9IhV3LWa8fTJKxVxbhFKeIiDkAZNL+Il0gd5+UvqGkS+zkpForCZ+w5puLraDPPKsihwa2LuZQPfML0Pr15rZ8B+d1+tJRQqfEUOhUtZgQQsjzTHY7KeKn/eqRMtBaWMepsnqjDeyCCB45QiEx/zyKWFIiJRJWnXqWxPUHTuZV4GACN4d1ZXW2e8lj/XhHRaBwO4302hYWi0faBNIbxLp7vgMGy167QgUgzWlBnjNasB66WFwB4Aa1R+TJhDSZkiYVLT+6JkLNUw/kpz2CSIkmapBqTmTh7XNyX51kXbk4X4krXnXk7Ajr8GtfLN1PiJYwnP9B2VfSkn4/+PZ4HwiKYy+VYG96ZbIjBatAfUp+x9VR9R079u26UmSW0UizzdD7Oqlo8WnRi/xzAVQc+fhm5baKE9SLSHDex5wGnSMlAISOj0DuPuxzdcfGyTLqQX2m3UZCZKJaHN6rQxM4c6pwlkpo3tzH/s0mSvO+nc4XYetRxX31paNliE4JgwwSfE+q/ndFDky72dKLKwzxMsgPFY6tsJhIYTUKw6meQa2y3VaKKcnz3V4iLU7a80hvJoTGGMJmnD3JiZFULCl8MBOklNpVVO1CGo1MGX1J7A3RLq9Nl3amP8tGFQ20lSmTf0OROOz0W6ZWU1KQDIDoOZTDpFV5X/fiVK0o3pX6BryV1Q6qEnL4qh4yarSPXiVx9WgIfyDlHVsaqGph8d1KHss4ezmcW4f+Nlnct86R0+zY2fPC8JtW3p98+YWDDzx1ofO7y0j3I21Mpp7W8QbcO75T4HYJUXFGw2TqpIi0nxbpXpyinC2gfts2p1Ya0dIXL++bHQ9XLk4TIxeScFDNllHZDGwqnRAtoe21N4f1Ww31HKTfd1FIlO5OZhklYSPz0I8MCd8FLbhPGY30PDHMvi5vNSHCqIk0loNIubN6qBgXQ0l5lhU2tP6oh0iJlnuuOvXgMWkk2gAAIABJREFU4KgYpAjK40optdHb01AwViqwuWohsy3/9n24q16ffVqcU1Wv9LF6H33pqBltpMSVhY3HBdRuaVVKl0peyNpeHYD04g9ukj5Jn8+gYjUhLmvhf3GR8QY1TgW4e6h6peeLOAwkkeaLsJNWjRLVApKrlcNvX2zio0gfaYO7PsNmnL1A1k32NMqf5NzfttJoZDrpUWIvkUHZZa/EHISmKuR6yCvgPDlH7Z42ublrx3Nbg0mSlLseheSZnTM6lBQkoyK7LbD8xBuAnBufoRbcp6pcbXe0YB2co3BbPaJ7caqs6qbXttTBmBRhcX8pjeKJ2r/0I4mrhrIa8mX1lak+JI9bxwXkntZwuCafm1cPQH5f6TV5vP7VRhFq2GsvsohkFmihfqFPutMonhwCm+0iYB3Un9bQvCzAXuhWck+1G298mDb2H0FaUS94zjlNXcuX/0zqu529FHJo+A5EaYKUjfpd1fYDZFnFyP4Lxy1f6cZLV6nfCWpoVOGu2SjhyAtpf+hI8uJklhleXxfHiwaYC9VzTJF6ratW28UuZ88UqZHQl61aaKGF+uNFqf0tWKv7yFxKDvo79YTFsDSKJ000L+W5nTTOD8b34fj5CJnQqek5Syu7iEc69tGXjoMhOCXickHeyy9ahShuGyb4SyWI7SDDTA1ViTFfxPJFEI7pwnoIHG5DmmTUUdUmC96D6e8zX4S96YaTGGfPKy4UewnHPFXaQEsaQCVqNCd40sL2+A+WMojLlsMw2OChdfZSXmhOn0bK8LjnnRHYZT9ozkHTRw159cOqtVz5ueKp6gQM7b8F6wCed9rgROgEJQXJqMlbNSz6Iahq5NKRltrQDQ6qqTnYdw+11ZCkCABNAnBhHd31HN1J4ma3432iqiUvr0z1Lnns7KUwV1xEI+aY9QZ6hcdziZFP2W2B0ryFQvibAODCfWTcnMwsaRS3TZPudquKnpw0Nv2oCQfI7dWh21NuR9plJwddplB10GmpT08j+VFvxdNH6veiEHKvv09Kl8pue7YQOiauLBT8ApT1O3LKlhzF0WlFddm4WGavpf1V4yKKJ01kDlJILbjYEiVkz6phukrz5n77aF8ycwy2r/MI0jfqF6cI+j93syk5pb3UJOzksIFDLD9J4ejhEVIHGTS1SD7hzxOjyAQvOkPtszRZ05Mi0ld12LeiRW5nbw7upo3ivOzkK6PcxjlQ30wlynM6eympDo3fV11ZKKQ2gIMSSoHTJ9y/9750bIhr0HZ3pyLJHHnyK4rcyGVN5H3pk0g+JZBL8aWDEmSWzFIxFVGzKr58U0PUViqikiSZKISQZVWS5GASJVI0+aMAVdZF/XSSnFEklLTjRxJRSVJLnWgvjZbENR8PMiDM96EPiT0hhmqXo0CWZet2e7PkWCQPlSitSklBMgA69ZOypFfcFlWJXqMcbyANaJSxlfsL7Z2hyxTG5HaFIvsX9W/SMbuWxP1lZ9lfqG37ZY+SxzGZxgT07ZR3gn9usm136rtpv5NPf/fIJN8nSQlKz5BZAjBuT+H4rYO8oPr7UjtCO5OOY3iW20pgK8eHL5kdnWe7cWzwLgrPr6MccGDLvhSoLvmo26syPuke2uBkMK6+Lnhmo2c+6Ot0+2s3D1Il62Pf7sblOqPfUn9HGfMptqHtf1kTFV+y3tzXmN83xm1M3/vyu4lj3IS+NIlR2NnQnBJyx9/Y9Qfs+sTJCV7a3gNUcXqZ/DREZSUf12GXJvTejZCdD7Kea4IervwwJnQcvTgGvGMbDENrdzunhHysvPQAt+8wJPyJZn6l80Mnwxf9ZND2Pmha4eH9d8xOieHbZfd0p0Mt24qqtW580RqcLiYHZqMbp0QHuwls1jt/6Tr7114eINIp8fzC+zvb8P5OPrxHsw3v72TA+zDbjOL+fgtDwUEdFVQerWNuFWieCNhJmwo/R+1EAGjB6ubwVxYKCy62LgvA3UPcxwZSe1sJVcK98LPiWRUF16t2XAy/a8Fa3QAObAhh2HV+GYWnG7CupLC1Kwv7Tws47CLHtHVc8EJJtVoP2W0BcaeKguvn7wUhfTsprIdblZEqwsuF90PPN4qL2BJpZCEgttXf2cBhorZ1KI2GDWwctwavgU3Ghiex1zRL7C0BUMupDtcueyS9ZkOsaX+8slB4mIFtsOXW8QbOV6IUqOy9GvY3LbSkUG3nSRn58Hp4IeUleDZylPHyVVtXDtBFteH2duOlkdzXJAVtBLm/Au4TIHMboKQgIYQQQgghyQyl0GXreB+4swys1NC4a0vF86ScdC2/u3VcQOFYUmVOlD5qwdpcxynKyC2so1yc8/LodupefYZsOTyekr8n778q5+ypdSLU3O80igcF2JtaXs6BnG+YVIMiyO/TcnS1HKEgx7YhFyZxKlGNiiAXvuvcXp1O0mhkaulRYm+4dtk/3ap3uBeL2PKlxwB4TkPYqIcOBgf1nUpUoE4qpCkX1Jtb2Ee9469RUpAQQp4X2qowPee0jgtUbyOEDJ2hOCVkuaDMmu0Vj1q10EIWy7ueHInzcB2LUiVh9wIo3PanO5/WUU6UPkqjeOBLw0jqG/ldoL7gYsup4LQ4h7mLLa1AnrS/UqlUlnkS8UKSQVHMVAqp1D4yl3qxH03OSUSOBaN8jEkZIZzImK+n89BG4dKssduJbqTRyJTSo8TecO2yX1qoP4YaSaBXOPYdearWNeDJPQH2p76b76yOsqygI8k8qQX1OksgUVKQjI7Agdiusr9PkuRsohKOQWbXIJEdSmcnymUb1HBGKm0tOU47yvS2lxbm5JPEuLKwvxNXfrqWulRIC9aqatuJjniDDVblxQPd9nu12TaLaIkKOPCVeXbqCQtanh0nvUPatt90tY4L3b0LyXQzDLn1buXi+7QDGWevm/dDC9Zq1J8p/aPM0PtS7fs9R5EA7+Z8R8VQnBIxuaD5IrZ8ucHsnQrOXQt1ZRLuoL6ziMy8L7v02KuMWvh02QvjXirFV4N3ckj5kRJehfBllPw0ibzVTEjlcGHtFaSXZjxSov1NOYU76BfllV/t+yBZxjG73Z+ObLfSaGR66UVibyR2iW5f1j5nnhyYYle6M6+NxGn6dgF4XPdUdHSp0LZ4kQ6m41JSkIyCaFCQA5zAWWYeLPU7iXb2NoADXwJXnuwHjj+/gnf4HIe2Z6oyrmnDj0za2lc2cAI5tfuoPc3Frkl0PePSwoVjRxkcEhLhoBpWspcl+PIxGd2BcFY19tPh8yz1f7JiWyK92KxpEU2OzNX6XPkdVQ6jfqtwzmT1qzqWje+QLtsv0TouYO5xAU2xBXeBjolZZhhy613LxQNAKH8tq2dI0psiWgg2TeBzOzAqralOkSOsSyociYyiLw2U7i5rCKxSfVf0t/A9aIbilDARDuCXSrAzrqpNe+XifHcZWbRgrc7Bvuu9ILcu5pInN3qkRBdtOC3uA/fscPXUFCkhT4DCCZ+vbytEoK17TQ/6lYVC9hx4vAELRdj6ym3CZK8XriONRkbLu+++i6+//rqvfXuT2DPvP1C7RAvu024Hcw6q2XPULhtAtk+bmi/CPiki7dd6aZcuEQ0Ckwc7lBQkvdKv/abX7ISBuyQvJknihlrpj9Yxl6rCkgdKkox0MDDy6hUFTnd/UhE8u8HEwbcdfQDo7MUn9ia7Gb60dfTuifZJo3hikC9GNMiS34O9TozI9NF/H9qCtVrHsva+VyPl+sUcISGPJ8Oo2hUtUjZpZVSWvY6trHa2WX0Rw/jukI6PtUNF7rBp5ZG37nt9W+h80J2I/bY/hbmLLX+8kkXpsgCbjomJ4jpjVZ3By633KhcfONnmsP4o+H/Z+RbJ9QZ9dTRvlBwXuqy9tCDeaaFMjtobfl8aR31XqPLEY6Of6pgB7XcPqtsnVcCX1CIkqRi1Sr1f9d8yyCDFjlOLpGZ2K1KVfb81RsUMk+RT0yxZo+8ZKAdoMiyyMkbS/lFb2ss6htcnuJ6Kiod8XdVz6FcaTeeajwfpkm9/+9vihRdeEA8ePBBfffVV7Hvzfeji2dFkuUJFimHZpXL8zuiqFF2pykgSR53O9zNZ3SPWJvn6eXZFSUHSD/3Zb4SqXhOXF1PsRJMADElQbIrhVETF0lSlgn0vayIv9aP6M67KA5sPP1Bpa7+fTz4v7x0Wfm8aF4T2HV3XTmo4vUL7HT/X6UNNClT6pyvbMuL1CXm/vwzUqmQFKaXP6ag4p9l+Pzarvys6/Tt458hqdLLSV6w9PbQ/2CfxGvv9dId+mTY4Gq7b10UMXm69V7l402+27xeCPkTuo6P2xH7b0FfH5n5t2jvQvlQf70vqcMo2E2BnQ3RKkGmH93c0/PznPxcvvviiePnll8WLL74Ye+HzPsw2vL/TTX/2a3Yqek7A7pwSyY45f3+j894f2Gl/rzgiLoGtacdH7fYGQcOWtu5WetvkTIwPuOiUmGWu04fKA/xu/t07uiOvzcJXX06J7m1WCOE5FLpywiQvfEQLf9rCR4/tb1p533bbLJL4x9MX32Rog6NhYGPVgcut9yYX34scvXfMprQ4Z3BKaMdPcqZ556U508Xw+9KgnQ3pXTapTomRpW8QQsz8/d//PV544QV8/fXX+Oabb3B0dITvfve7+Id/+IeBhcoRQoZDf/Yb5HZ7eZxBqoG91oW2jZ++gW2Bxq6WfnhZQ14u9iqHljpBxmg8/zQKAXWjmhZynv2duh9yfYRAiye7HR0zCAtPCjlNSYU1g3orptQzWXUqu22jqIXi6p/Cccs7zkkRaal4mZKzzzTFmWei+9CrOuxHkIpAenVePLtrdVHrJChSl0M5DEOX0xq6t9kApYaEXlMifE/I9SfUMPXSHYTpG+E7KDFNNLn96TU7Stcw5sT74fBLpa4KVJPhMig7C+XW755jP5bmoymX+XLrWQRy61m4F0FxdE9uvXW8H5OLPz/Q0oOelJH305O9dAxD6oWWNllxvOcvqs0EeHYRpCxJtcmWShCbLjaOW2gdb2D9VsVQo+EU6wteDSk5RX/YfWnQTn10MYnpG3RKkLZ0rurMzyA+X375ZXjNgxf+4eEhfvzjH4/x7pNRMe7nj5/x2K+ztw/s5lHuWFPFn3AvrON0pYamn8edvbOI9YdOtM2mjYKcwyrn0vpy2UqFcn+iFP12xp+INFGDvC+8HNqT+0ZJ4KFJWy+VImeLNoCM14qIJlFKbR1j0evBMu7nj5/r9aFyrvpc8TT27/5pwXroYnEFgBvkycvF1aV8dqnGQss9x2JGnuKb68x49G6zSm6+XlMiG01NlEKX4bukc8HYrtvftXpIqqMywLifv+flc/2x6uDl1nuWiw+Q+0ftk9uRWrRtI/Ow/XUpHLfCeoDuxSIa28vKOVdTKeR2PAdeuzoQQ+lLpbpRp8U5pFYtuAAqjl7kc/zQKUHaYvRc8zPwz3e+8x3lur/44osolUr4xS9+MaY7T0bJuJ8/fsZgv2dV7N88xP2b3uBj62KujcqGP+HWizovldCAp0Th7M3BvqsV5zNGSiCmvhEvrKxV6b80OyMUhihtjSu3Y+V1uUK6rm4wbAnQcT9//FyvD42pT0if6xRKbR1vwL3j287tEuLF1aVJwUkR6fki7O0s3ItTlLMF1G/bPRSy69JmA0ef9F7Qzz94H6RvF5BHBQ3RQGWlgspKBQ1RQiZJOaHX9kuy3cG1TrwXbQp2A7TBabAzYDhy6z3LxQd0iJSQ8ZwFBnGEyxryUB0ecnvc4wIChRr9mIkyp0PsS/NWEyKMmkhjOYhWOauj/Gi9ZwWQQTMVTometWonRfe9Wy1cf3tjZeRUCqk9SzsOKxLPEu+99x7++Mc/AvBe8P/yL/+C3/3ud/jnf/5nvPzyy10cYVKe9+hYo9KK7oRRizn28VZ+uts2sEkHMe3nDscns0m/9us8gTaQab+CkkR221Ov2b/ZjDsXTJESQAf1DfW5rp4BmE+3nRAMU9oaaME6OI8p+rgXp8pqbHptS5JzkwaMKzXcX5JDblV6kjAmE8n1+9Bk0mt2zK66e2ZaqF8UtImFL6+92a6vdlB/WkPzsgB7odu+o1ubNfS5RvWNKpwg8ipUksrg/sky6qsW6hdoo7DVT/vhSaVebIXXWlYmIJPBde1slHLrXcnFdxkpIR3Vt1/v2WwdF3zHvrlvAYDMmg2jQg1gUBnBkPvSOJ7qx1yoCnRd5cfrMtlOiR61aidS9x2qnJJJskz426thO1K+03ZR8YDHvG1kqvnpT3+K//3f/+3rBT95z/vwtKL7RVl5uawhL+moyxruquyT7AXXPONCRCHhbTztYkDtJ5NNv/YbX90JCCTJ2g2OPLx3gGf/WxdzcQdYUqSEzJULBKueOznouaVq3qknO+jtN3xpa2+yZYgAkVbJVNRrl+oY4tqLhDGZVPq1wa5RHO3dPjNpFLdNE4s0iidJk4oWrNUcsOlHTThAbq+Otu+EXmxWj6bw3wvx6IQSssZ2ZlE6AOxE+e0+2g9475KDDJpSqlV2u4nMQYo1YSaI69jZyOXWu5GL7yFSIuTsKJTe9eRG3VjNlm5puefArYy3MDD0vtQjSN+oX5wi6F/dzWbMMTQ2xDW45u6d0Sqttq0GLFUR7VZiTa1YWhG1dhVZk2QIdxvmCshhxdbot3X5GmN12C7kqLqtSn5dhn5/iRBCiP39faO8UkCn+zA5z7sQikRSlxWN224XVPXu47oG1yYmb6bIMMWvl0xjF21km7qRP9WlfOPQzqabUdlvWDE8sEFD36BUIQ+VOqLK9t72XapvmFsrqW8MV9o6XnFf+52Y7RlszahW0p+EcRK03/FzLRtMlJJNGmP2+syYZHSl5146VmM3yab1d4J/vJ5sth8ZcWmfBGUDeTzac/v1a6F8IpUfympPBv3a2Ujk1ruWiz8Uhz3awS/lY8bsLS63Gf5dP+fYuHg0fWlc3SP4nfhYo51M6SjsbKKdEv1o1Qb7TYTuez9OiVAKLS7hErWfTonniUFNaoQQQ37eR6EV3fvxOnc8CU4Dp5L8nRBClllKOnbeqtEp8ZzD+zvb8P5OPrxHsw3v72TA+zDbjOL+TnT6hnsB1C6DVIcmClhEYzvrFeS4lQH8Cr/uxSmQIAdWOO4+sEap6aDk2fkhsaZKwU+WUVrLYDEIZ/f3VSsPR+eTlP8kbWUIS3WVkPx24bzkeWESn3cHR1KlcmNOqFRfwlTDQS9Qp9Zw6I9u0zcUriwUsmXkV85RP2vBWk3OAc6Y0j78T1cSj4QQQgghhDzHTLBTolet2knVfZfOZ8dclEUp5LmzjnX45/1oHblwkhfVpmBNCRLlhk7O8z5sreh+MTkI2+OgurAOWE0c3gW8a70FdyHZOWJysExEfh4hhBBCCCETzgQ7JXrXqgUmUfc9aFcO59Z9Y2EzJYJit+FLH3kTP5Mc1SArr5LpZpKe92FrRfeLEnmxsI5TOcpDKQIWXKccyrsNrbCQZ48N5BLVNOTCtdeRkSNkWCgOcEIIIYSQCWGCnRK9a9VOqu67e1xADuokJ51ZDCdLOdm5okyY/Oqu8SuD6jVkEsmMMGHP+yi0onvFvThVnAXt0ze8SsTrtxqJkRnZbQHhADnaHxkUgUzvWdUsKRs8a0nfa+o6QdpUL+lR7eSAOzs79dSm9ulOfisjNR9dQjihHUnvtjBNzJBuFu1j6DNN6WnGDyW4SUTX0tH+M606AhNkpGP9SfS8Jv6esQ/SVLLMZ9C7zU6QzDeZJVR7kPsaZ88cmersSc9pxz7RbG9qX9KCtarbTLBfL+/+IfRpie1LsmHtPPeSrs/k9mkT7ZToVat2UnXfM2t2fJKzVIomRrJEjjJhSlhxvXJx3vtpkRljUp93mWFoRXenEQ940m0VLHd1TXwps25SRZZKqs36yJM9szOREB0/OinQJNfe/4oTMegznEpsu9JSfNJtkrjVpaij2idpwwDPiyKKas0YBnVXddi3tlRHpulv+jmv5gDHd2Iu3UftaS42QIsmY3OhBFs0eHUMAzX1+nUVrRRu7zkn49cmoeYMea5Rn5OEFES/H0mvbQFyGmNsW1k2WrJjv1/cwKHZoW7og7qiD5udNJlvMkME9uBUANRDJ0JuB9oirfe+z25vwd2Mnru4nK22mKXZW9gvGBwHUZ/jjwWFjeK82dEWd2wMqU+7qsO+ZVjMiyEtPPrvidIdhH1c1PdPdp820U4JnU5atROp+94riZES53ADz9aVi9Nbmf46JDIzTMXzPnCt6G414uHpSSOD7izRe6H349QJ0Cc0g9KVJrOLszcHd1NKx9Pe/6mFdajurRasA3gFn9s4A6VfUFaK4pESqr2bBngmxwYAb1CnpEN5qy+tT20tRUpelWnBWp2Dfbcp2VoaxZMGkI2v3gQ2JTtTOjobzqpmp6Xs/NQmU85efJA4yatJZAIInXg5lHXH+qqFVrhy6X8fe+Y6PF9+v2ivuZ4Na6mHfaVh9WWzfqr0leq0nCueqjYVvouC8ccc1h8F/59DGfL/E5JEVD/P7LjLorTp4mgIaYiBIz/ex6htUselQ+7TrlzVNnuNMvL3jfp+PWV5spgqp0SYvnFpY/nTyKOVVKshwvxAtY4L3gv6VsZb7ZW80qUlP1RbLKOuvHD9dvgrx/mbGWBpGZVE9Q11gpj0CQdRxkiJDJbvAusL0fG9dBZCTIzzeff32NOe8YV1nCqTgn/Dv8kDtjaREuWs/CJ24SLBuaHhPCmjspmwmhSGbs/14LhIJr1mKw4N2eNuTFkh5KyK/ZtNz9EePN/tIiUAtI434G76zsj5Ig5v7neenCQ6/dooz3Q5IY+cGMGxHBw9Lii/Fw7griwUUt7gLe6wy6IkvGKyQV+Yvl3AeTbuTJkrLmKrH1Ub+TqEq8yeslVuR/2+aeWRtw5Zu4m0R7dXZQIVFKP2x3HXWUhKWu3tg55sFl4B6/KtDNJydK/ps51VzrltdFa/UR5k9gjGf9kygGWUhGmxLav+fanU/QKSNr4caBTrCPo058l5VIz+soZ8+B45xfpCF87JKYuUgLgG19ydTDi8v5MB78Nsw/s723S6v43dvKhdCiGcigAQ/6zURNPbUlRM36MiGqIhKv52jV2IihMePWEfeV8TTVFbgchbTdG08iJvNeObOBXp701RW8mLym5e+m31/MLz7EBjVz5n/+iWftymqK14bQ/P97Im8ruNsF3qPtH1CQm2l/8dXJfw7955tWs37XfyGeQ9Cp+rJHuF9vw6FcnOZDsNnqvgb57NxY61W5G+944Tt4eABHsP2tOjzYbH8+1BfbdI5+cfv2nl27xr9PMyv3n6gTY4GfR7H+TnOekZqjiRfYTPsPI8R0TPqWdbDe34of3uNkTUl5jtL281QrvTjz+SPg3Sb4TnG/RLfpulvj9qe17UrKR3VHft1hmFnU1ZpAQhhBAyG7SOC1Gh46SVyHBVMZLiVUI/L5eR6SIMPH5sw4rJWdUP3fZWPIPVnyRZ3ajehBcSmrlnY/mJefUmu22jeJVcmCyIGMxuB+cc5fIqaScdU1ZkgvQVOSJLjgJxo3xhv2ivEALiTt2P6DqC28OvkeeMtpES8FZSs2UAZeQ6PrfxKAMhBMT2co+NMoS/S5EJvdjspMp8kxlBqusQKMiZaiEJIVBa8u1DSyM21TyKUpY9FUc5BkGPapW+8e3Ps9+gf7XbROUNu09rfWpjcXcxLBbfcqGlLnttbt61MbfneL8T1pSwUcxg6iIl6JQghAwctXowISTGWVUKJe1QtX7PUdQilNDPhX3U2/1OYnqUIbd0qQQhDoHNKOTUvUgOd42HgntpYEmTnNDxcllDvmNIuhr+HoaAd5jMtNxzzYnSLh844/9GEzXIRX3h7XNy/9qpXWS2UCTc9RowWs0E56GNguNPEu7UUTgOXFwO6junWN9Myg8fnsJaLzY7qTLfZPaoOAL27XqyIlKCPbQrdBmk0eq1lNoVSnf29oHdfOgk6cjQ+rQW6o8Xsby9jMXHdbTg4Ohxxpi6nDaJKQRti/09jeKJPbGpiXRKEELao8h/dSFpdmVhf0cvGtflCz6pSF2IPFhLaEuwEnpWRaxwZwcpJkJGhfMEaIQ1I0yrpE3UVvJePul21isaa8zT7jDA6DJSQq8MHqxA5Qy23ClaIbvdROagjTThlQv4q6tJyFKI+qDSaL/zRdjbWbgXpyhnC6jfTloRM6Fd/0s6I4gJSYJ+qQRx2fRsK5yQNNG8jCITstuSbS6VolXXszrKK3nEKkNcSfVlAH8lOXA5unAHUP8oCZPNTqLMN5lhpD5OVWxJqEOyVDIWFA+U6IKoizA6p1M9lrMq9m8e4v5Nb/uti7nux4oD79PSKJ6UkEUW9+/aONqrA0k10gbye5MBnRKEECPhCy1bllY+6lgOOgxj4TgHVTkMOuxculTM6IkonF39+APBpRK8wp1yuHZyVWRCRoky4Dfqrc9h/ZFXzKpzxW0vTFW2MK/YbLtCslJ1/FULMITNehOIfFRoSylq145gQCVN4kJasA7OY+8D9+JUiXBIr22pg1Jp8nd/KTi+joP60xqalwXYC22cIto+snOzegZgPs1CfMSAC/fRoh8p0YK1OaeqAFy5ONps17dkUTrJ4ChbRmVzC4vh3/zQblke+NE65g4yaG6XUDopAsf7KD9ax4Yf4n4dpSgz7WxW2moIMt+EAEDrqhWX6lQWxSSuLFSPW+r3xm29aB5ZGj4pHdF5AiXqJ3BudNHyIfZpQDqziPLOeRSh1YmdHFIpzzEvR23IBWcH//4YDHRKEEKMpNdsvwp9U1q1LSHjy4jKkx3P69qCtVrHcmxylMO5sZK9IdIhWzbkCFbh6PJq3UZeIIuS0PP+cij7lYt7iuIgZFgEIaBORcpTlyIlDKtE0aqHeRLkqelIObjKcaH+zejQSGH/ZjNM5zBFSOj56XHkSRzg2fwc7Lv6+yAWpzItAAAHo0lEQVRpIqSpV8UkUtVjWKs5bzVpvgjbAXJ79dgxlEnRTg66RKEaFTLZ8mlktLSO98PIAE/OVxvcz2dROtmCu5DgmLiyUEjlcG41tUmBg+pqHcsnNorzDqqpHMq7DSUPfc5XyDBKd/dA7zarMXCZb/J80oJ1UAZ2ctjAIZafpHD08AipgwyastN7qQSx6SqSuqfFOaQ2gWVsIPVkOeq/gm1D+/D6BFmhMUxHNKQ2xCODAtr0IUPt0/zFwSfLEIqShykFwx8jL6xj0ekignJSSSyB2QXX3J1MOLy/k8F470NDVFARjbBScbxqsPdvv1r/Sufq22q15IaoGKsLS78tN+eyJvJ6Ff2klu/qvyX9ZpfHGAW0s9mm7f01Pc+yCoT0/CtVyWPPr1w53N8nVAfw7euymbiPV0lcrnSe0F7/mEH1cr2Sv1KxX6+y71S0qt9atfPYObW3/6i9gbqHyd7jxwgrpuvqG0aovjELDOoeRUoywbMWPevKsyc/W5IqjKp2oz3/uw3/mZa28d8FMXv07eCXu+37Wuh22KvNChGqFDQ6/dbKoTg0qYd0o1ByTWiDk8Fg7oP0LBrez4EaVPL4Tij2kbeaap8qKdEkPYvqGLeZqL4xjj4tUeFGv1bKOGIw9jcKO0v5P9QXqVQK19idTDi8v5PB2O7DlYVCzItbQc06h5uxcd8t4Ej6b2nJ8+pu4DDM8+v0bw8H1VQdy6KE7FkVBfe+V/BowcWWplndOqti4+AceAQs7gLlnQQf80oNzZMicFzA3MWW5hF3UF11cX9CtNJpZ7MN7+9sw/s7+fAezTa8v5MB78NsM4r7+62hHp0QMt3sNiC2M7BW52DfbcJeS6N1XMDRAA7t7GlhcKkgiLqMlP9/p8HfdhsQ28DRE2Dx0SKWHWDfvQ8hbO/7wJmhFz1as8EukhBCCCGEkMnlWjUlbty4gWfPng2qLWSCePbsGW7cuDHuZhCM287qqKY2gANfrknKKU+SCpRrQswVT2P/Dghz3oWa+55fqRgL67WO68jcWwZWMsj4VZd16VFnT6sPERRNkuQU48X/+s/PvS60s9mH/eTsQvudDmiDswttcHKgnc0uo7KzazklXn/9dXz22WeDaguZID777DO8/vrr424GwbjtbBklYSPzMIXUJnAYpkG04D7NG4thmXSjg0+SHJOzl/KK+TgV4O4ysBkvPulC02i+srD/tIb7UsGw7L0aUDwKnQzOkzIqd7JxqSmlEFdScaPhQzubfdhPzi603+mANji70AYnB9rZ7DIqO7uWU+KNN97Ar371q0G1hUwQv/rVr/DGG2+MuxkEY7SzKxencGGtplC/IyAOgI1UFe6ajRKOPLnCh05P8mTpNVtNsfClEOt3ZJnBDIonAofYUJQFsmuaQsDDdSzqus3zRWztlrF/3IJJCmrSoJ3NPuwnZxfa73RAG5xdaIOTA+1sdhmVnV3LKfH222/j/fffZ7jOjPHs2TO8//77ePvtt8fdFILx2VnLPUflThHFkyYyBymkgsKTZ1WkskBDCDRv7vee/uCnVITREQmayek1O5Ij1KQIcVZFTouSCMjeq3k66lcuzn35tkmEdvZ8wH5yNqH9Tg+0wdmENjhZ0M5mk1Ha2bXUNwDgwYMH+O///m+8//77g2oTGTPvvPMOXnrpJfz85z8fd1OIzzjszNmrAneAXPYctUtP87h1XPD00mXlirOqpy3ta5fHFTviVByzIyKxYGXUKkU5o3VcCOtU6MdsHQeqIL7ue7sG+Wodo1TjoJ09P7CfnD1ov9MFbXD2oA1OHrSz2WOUdnZtpwQAZLNZvPnmmyiX2w77yRRQqVTw4YcfwnHGVfqPJEE7mx1oZ88ftN/ZgfY7ndAGZwfa4ORCO5sdRm1n10rfCLBtGx9++CHeeecdhu1MKc+ePcM777yDDz/8ELZtj7s5xADtbPqhnT2/0H6nH9rvdEMbnH5og5MP7Wz6GZedDcQp8eqrr8JxHLz00kv43ve+h5/85Cf45JNP+DBOOM+ePcMnn3yCn/zkJ/je976Hl156CY7j4NVXXx1304gB2tl0QjsjAO13WqH9zg60wemENjhd0M6mk0mws4Gkb8j85je/wQcffICPPvoIn3/+Ob766qtBHp4MkBs3buD111/HG2+8gbfffhvf//73x90k0iW0s+mBdkZ0aL/TA+13NqENTg+0wemFdjY9TIKdDdwpQQghhBBCCCGEENINA0nfIIQQQgghhBBCCOkVOiUIIYQQQgghhBAyFuiUIIQQQgghhBBCyFigU4IQQgghhBBCCCFjgU4JQgghhBBCCCGEjAU6JQghhBBCCCGEEDIW6JQghBBCCCGEEELIWKBTghBCCCGEEEIIIWOBTglCCCGEEEIIIYSMBTolCCGEEEIIIYQQMhbolCCEEEIIIYQQQshYoFOCEEIIIYQQQgghY4FOCUIIIYQQQgghhIwFOiUIIYQQQgghhBAyFuiUIIQQQgghhBBCyFigU4IQQgghhBBCCCFjgU4JQgghhBBCCCGEjAU6JQghhBBCCCGEEDIW6JQghBBCCCGEEELIWKBTghBCCCGEEEIIIWOBTglCCCGEEEIIIYSMhf8DWwxLhT8MX80AAAAASUVORK5CYII=;" vertex="1" parent="AVcUfgeAxnviZxiKyeQJ-1">
          <mxGeometry x="-457" y="28" width="1061" height="765" as="geometry" />
        </mxCell>
      </root>
    </mxGraphModel>
  </diagram>
</mxfile>
